<svg xmlns="http://www.w3.org/2000/svg" xmlns:xlink="http://www.w3.org/1999/xlink" width="1381" zoomAndPan="magnify" viewBox="0 0 1035.75 358.49999" height="478" preserveAspectRatio="xMidYMid meet" version="1.0"><defs><filter x="0%" y="0%" width="100%" height="100%" id="a190c40cea"><feColorMatrix values="0 0 0 0 1 0 0 0 0 1 0 0 0 0 1 0 0 0 1 0" color-interpolation-filters="sRGB"/></filter><g/><clipPath id="2dae92703c"><path d="M 0.597656 0 L 1034.902344 0 L 1034.902344 358 L 0.597656 358 Z M 0.597656 0 " clip-rule="nonzero"/></clipPath><clipPath id="e457273603"><path d="M 0.597656 0 L 1034.902344 0 L 1034.902344 358 L 0.597656 358 Z M 0.597656 0 " clip-rule="nonzero"/></clipPath><clipPath id="d2220310a5"><path d="M 0.597656 0 L 1034.902344 0 L 1034.902344 358 L 0.597656 358 Z M 0.597656 0 " clip-rule="nonzero"/></clipPath><clipPath id="88ba82bb29"><path d="M 0.597656 0 L 1034.902344 0 L 1034.902344 358 L 0.597656 358 Z M 0.597656 0 " clip-rule="nonzero"/></clipPath><linearGradient x1="45.659994" gradientTransform="matrix(2.129957, 0, 0, 2.131217, 72.872999, 90.320304)" y1="-121.973011" x2="372.449799" gradientUnits="userSpaceOnUse" y2="204.816805" id="c758178599"><stop stop-opacity="1" stop-color="rgb(20.388794%, 56.858826%, 100%)" offset="0"/><stop stop-opacity="1" stop-color="rgb(20.259094%, 56.741333%, 100%)" offset="0.125"/><stop stop-opacity="1" stop-color="rgb(20.027161%, 56.530762%, 100%)" offset="0.132812"/><stop stop-opacity="1" stop-color="rgb(19.819641%, 56.343079%, 100%)" offset="0.140625"/><stop stop-opacity="1" stop-color="rgb(19.610596%, 56.155396%, 100%)" offset="0.148438"/><stop stop-opacity="1" stop-color="rgb(19.403076%, 55.967712%, 100%)" offset="0.15625"/><stop stop-opacity="1" stop-color="rgb(19.195557%, 55.780029%, 100%)" offset="0.164063"/><stop stop-opacity="1" stop-color="rgb(18.988037%, 55.592346%, 100%)" offset="0.171875"/><stop stop-opacity="1" stop-color="rgb(18.780518%, 55.404663%, 100%)" offset="0.179688"/><stop stop-opacity="1" stop-color="rgb(18.572998%, 55.21698%, 100%)" offset="0.1875"/><stop stop-opacity="1" stop-color="rgb(18.365479%, 55.029297%, 100%)" offset="0.195312"/><stop stop-opacity="1" stop-color="rgb(18.157959%, 54.841614%, 100%)" offset="0.203125"/><stop stop-opacity="1" stop-color="rgb(17.948914%, 54.653931%, 100%)" offset="0.210938"/><stop stop-opacity="1" stop-color="rgb(17.741394%, 54.466248%, 100%)" offset="0.21875"/><stop stop-opacity="1" stop-color="rgb(17.533875%, 54.278564%, 100%)" offset="0.226562"/><stop stop-opacity="1" stop-color="rgb(17.326355%, 54.090881%, 100%)" offset="0.234375"/><stop stop-opacity="1" stop-color="rgb(17.118835%, 53.901672%, 100%)" offset="0.242188"/><stop stop-opacity="1" stop-color="rgb(16.911316%, 53.713989%, 100%)" offset="0.25"/><stop stop-opacity="1" stop-color="rgb(16.703796%, 53.526306%, 100%)" offset="0.257015"/><stop stop-opacity="1" stop-color="rgb(16.600037%, 53.433228%, 100%)" offset="0.257812"/><stop stop-opacity="1" stop-color="rgb(16.494751%, 53.338623%, 100%)" offset="0.265625"/><stop stop-opacity="1" stop-color="rgb(16.287231%, 53.15094%, 100%)" offset="0.273438"/><stop stop-opacity="1" stop-color="rgb(16.079712%, 52.963257%, 100%)" offset="0.28125"/><stop stop-opacity="1" stop-color="rgb(15.872192%, 52.775574%, 100%)" offset="0.289063"/><stop stop-opacity="1" stop-color="rgb(15.664673%, 52.587891%, 100%)" offset="0.296875"/><stop stop-opacity="1" stop-color="rgb(15.457153%, 52.400208%, 100%)" offset="0.304688"/><stop stop-opacity="1" stop-color="rgb(15.249634%, 52.212524%, 100%)" offset="0.3125"/><stop stop-opacity="1" stop-color="rgb(15.042114%, 52.024841%, 100%)" offset="0.320313"/><stop stop-opacity="1" stop-color="rgb(14.833069%, 51.837158%, 100%)" offset="0.328125"/><stop stop-opacity="1" stop-color="rgb(14.625549%, 51.649475%, 100%)" offset="0.335938"/><stop stop-opacity="1" stop-color="rgb(14.41803%, 51.461792%, 100%)" offset="0.34375"/><stop stop-opacity="1" stop-color="rgb(14.21051%, 51.274109%, 100%)" offset="0.351563"/><stop stop-opacity="1" stop-color="rgb(14.002991%, 51.086426%, 100%)" offset="0.359375"/><stop stop-opacity="1" stop-color="rgb(13.795471%, 50.898743%, 100%)" offset="0.367188"/><stop stop-opacity="1" stop-color="rgb(13.587952%, 50.71106%, 100%)" offset="0.375"/><stop stop-opacity="1" stop-color="rgb(13.378906%, 50.523376%, 100%)" offset="0.382813"/><stop stop-opacity="1" stop-color="rgb(13.171387%, 50.335693%, 100%)" offset="0.390625"/><stop stop-opacity="1" stop-color="rgb(12.963867%, 50.146484%, 100%)" offset="0.398438"/><stop stop-opacity="1" stop-color="rgb(12.756348%, 49.958801%, 100%)" offset="0.40625"/><stop stop-opacity="1" stop-color="rgb(12.548828%, 49.771118%, 100%)" offset="0.414063"/><stop stop-opacity="1" stop-color="rgb(12.341309%, 49.583435%, 100%)" offset="0.421875"/><stop stop-opacity="1" stop-color="rgb(12.133789%, 49.395752%, 100%)" offset="0.429688"/><stop stop-opacity="1" stop-color="rgb(11.924744%, 49.208069%, 100%)" offset="0.4375"/><stop stop-opacity="1" stop-color="rgb(11.717224%, 49.020386%, 100%)" offset="0.445313"/><stop stop-opacity="1" stop-color="rgb(11.509705%, 48.832703%, 100%)" offset="0.453125"/><stop stop-opacity="1" stop-color="rgb(11.302185%, 48.64502%, 100%)" offset="0.460938"/><stop stop-opacity="1" stop-color="rgb(11.094666%, 48.457336%, 100%)" offset="0.46875"/><stop stop-opacity="1" stop-color="rgb(10.887146%, 48.269653%, 100%)" offset="0.476563"/><stop stop-opacity="1" stop-color="rgb(10.679626%, 48.08197%, 100%)" offset="0.484375"/><stop stop-opacity="1" stop-color="rgb(10.472107%, 47.894287%, 100%)" offset="0.492188"/><stop stop-opacity="1" stop-color="rgb(10.263062%, 47.706604%, 100%)" offset="0.5"/><stop stop-opacity="1" stop-color="rgb(10.055542%, 47.518921%, 100%)" offset="0.507813"/><stop stop-opacity="1" stop-color="rgb(9.848022%, 47.331238%, 100%)" offset="0.515625"/><stop stop-opacity="1" stop-color="rgb(9.640503%, 47.143555%, 100%)" offset="0.523438"/><stop stop-opacity="1" stop-color="rgb(9.432983%, 46.955872%, 100%)" offset="0.53125"/><stop stop-opacity="1" stop-color="rgb(9.225464%, 46.768188%, 100%)" offset="0.539063"/><stop stop-opacity="1" stop-color="rgb(9.017944%, 46.580505%, 100%)" offset="0.546875"/><stop stop-opacity="1" stop-color="rgb(8.808899%, 46.391296%, 100%)" offset="0.554688"/><stop stop-opacity="1" stop-color="rgb(8.601379%, 46.203613%, 100%)" offset="0.5625"/><stop stop-opacity="1" stop-color="rgb(8.39386%, 46.01593%, 100%)" offset="0.570313"/><stop stop-opacity="1" stop-color="rgb(8.18634%, 45.828247%, 100%)" offset="0.578125"/><stop stop-opacity="1" stop-color="rgb(7.978821%, 45.640564%, 100%)" offset="0.585938"/><stop stop-opacity="1" stop-color="rgb(7.771301%, 45.452881%, 100%)" offset="0.59375"/><stop stop-opacity="1" stop-color="rgb(7.563782%, 45.265198%, 100%)" offset="0.601563"/><stop stop-opacity="1" stop-color="rgb(7.356262%, 45.077515%, 100%)" offset="0.609375"/><stop stop-opacity="1" stop-color="rgb(7.147217%, 44.889832%, 100%)" offset="0.617188"/><stop stop-opacity="1" stop-color="rgb(6.939697%, 44.702148%, 100%)" offset="0.625"/><stop stop-opacity="1" stop-color="rgb(6.732178%, 44.514465%, 100%)" offset="0.632813"/><stop stop-opacity="1" stop-color="rgb(6.524658%, 44.326782%, 100%)" offset="0.640625"/><stop stop-opacity="1" stop-color="rgb(6.317139%, 44.139099%, 100%)" offset="0.648438"/><stop stop-opacity="1" stop-color="rgb(6.109619%, 43.951416%, 100%)" offset="0.65625"/><stop stop-opacity="1" stop-color="rgb(5.9021%, 43.763733%, 100%)" offset="0.664063"/><stop stop-opacity="1" stop-color="rgb(5.693054%, 43.57605%, 100%)" offset="0.671875"/><stop stop-opacity="1" stop-color="rgb(5.485535%, 43.388367%, 100%)" offset="0.679688"/><stop stop-opacity="1" stop-color="rgb(5.278015%, 43.200684%, 100%)" offset="0.6875"/><stop stop-opacity="1" stop-color="rgb(5.070496%, 43.013%, 100%)" offset="0.695313"/><stop stop-opacity="1" stop-color="rgb(4.862976%, 42.825317%, 100%)" offset="0.703125"/><stop stop-opacity="1" stop-color="rgb(4.655457%, 42.637634%, 100%)" offset="0.710938"/><stop stop-opacity="1" stop-color="rgb(4.447937%, 42.448425%, 100%)" offset="0.71875"/><stop stop-opacity="1" stop-color="rgb(4.238892%, 42.260742%, 100%)" offset="0.726563"/><stop stop-opacity="1" stop-color="rgb(4.031372%, 42.073059%, 100%)" offset="0.734375"/><stop stop-opacity="1" stop-color="rgb(3.823853%, 41.885376%, 100%)" offset="0.742188"/><stop stop-opacity="1" stop-color="rgb(3.616333%, 41.697693%, 100%)" offset="0.742985"/><stop stop-opacity="1" stop-color="rgb(3.512573%, 41.604614%, 100%)" offset="0.75"/><stop stop-opacity="1" stop-color="rgb(3.408813%, 41.51001%, 100%)" offset="0.757813"/><stop stop-opacity="1" stop-color="rgb(3.201294%, 41.322327%, 100%)" offset="0.765625"/><stop stop-opacity="1" stop-color="rgb(2.993774%, 41.134644%, 100%)" offset="0.773438"/><stop stop-opacity="1" stop-color="rgb(2.786255%, 40.94696%, 100%)" offset="0.78125"/><stop stop-opacity="1" stop-color="rgb(2.577209%, 40.759277%, 100%)" offset="0.789063"/><stop stop-opacity="1" stop-color="rgb(2.36969%, 40.571594%, 100%)" offset="0.796875"/><stop stop-opacity="1" stop-color="rgb(2.16217%, 40.383911%, 100%)" offset="0.804688"/><stop stop-opacity="1" stop-color="rgb(1.954651%, 40.196228%, 100%)" offset="0.8125"/><stop stop-opacity="1" stop-color="rgb(1.747131%, 40.008545%, 100%)" offset="0.820313"/><stop stop-opacity="1" stop-color="rgb(1.539612%, 39.820862%, 100%)" offset="0.828125"/><stop stop-opacity="1" stop-color="rgb(1.332092%, 39.633179%, 100%)" offset="0.835938"/><stop stop-opacity="1" stop-color="rgb(1.123047%, 39.445496%, 100%)" offset="0.84375"/><stop stop-opacity="1" stop-color="rgb(0.915527%, 39.257812%, 100%)" offset="0.851563"/><stop stop-opacity="1" stop-color="rgb(0.708008%, 39.070129%, 100%)" offset="0.859375"/><stop stop-opacity="1" stop-color="rgb(0.500488%, 38.882446%, 100%)" offset="0.867188"/><stop stop-opacity="1" stop-color="rgb(0.292969%, 38.693237%, 100%)" offset="0.875"/><stop stop-opacity="1" stop-color="rgb(0.0946045%, 38.514709%, 100%)" offset="1"/></linearGradient><clipPath id="7be671f863"><rect x="0" width="1035" y="0" height="358"/></clipPath><clipPath id="968bd778eb"><path d="M 0.597656 0 L 1034.902344 0 L 1034.902344 358 L 0.597656 358 Z M 0.597656 0 " clip-rule="nonzero"/></clipPath><clipPath id="c2e5c2fe60"><rect x="0" width="1035" y="0" height="358"/></clipPath><clipPath id="222a7a46a1"><rect x="0" width="1035" y="0" height="358"/></clipPath><mask id="7b2dbc60a9"><g filter="url(#a190c40cea)"><g><g clip-path="url(#222a7a46a1)"><g clip-path="url(#968bd778eb)"><g><g clip-path="url(#c2e5c2fe60)"><g fill="#000000" fill-opacity="1"><g transform="translate(73.253779, 222.408951)"><g><path d="M 8.890625 0 L 8.890625 -125.984375 L 104.828125 -125.984375 C 113.597656 -125.984375 121.210938 -124.5625 127.671875 -121.71875 C 134.128906 -118.875 139.132812 -114.90625 142.6875 -109.8125 C 146.238281 -104.71875 148.015625 -98.675781 148.015625 -91.6875 C 148.015625 -85.289062 146.175781 -79.660156 142.5 -74.796875 C 138.832031 -69.941406 133.914062 -66.566406 127.75 -64.671875 L 127.75 -64.5 C 134.976562 -62.84375 140.753906 -59.316406 145.078125 -53.921875 C 149.398438 -48.535156 151.5625 -42.226562 151.5625 -35 C 151.5625 -28.007812 149.664062 -21.878906 145.875 -16.609375 C 142.09375 -11.335938 136.765625 -7.25 129.890625 -4.34375 C 123.015625 -1.445312 114.898438 0 105.546875 0 Z M 33.578125 -72.5 L 98.96875 -72.5 C 106.3125 -72.5 112.203125 -74.15625 116.640625 -77.46875 C 121.085938 -80.789062 123.3125 -85.234375 123.3125 -90.796875 C 123.3125 -96.484375 121.085938 -100.984375 116.640625 -104.296875 C 112.203125 -107.617188 106.253906 -109.28125 98.796875 -109.28125 L 33.578125 -109.28125 Z M 33.578125 -16.703125 L 99.15625 -16.703125 C 107.5625 -16.703125 114.28125 -18.535156 119.3125 -22.203125 C 124.351562 -25.878906 126.875 -30.796875 126.875 -36.953125 C 126.875 -42.878906 124.351562 -47.707031 119.3125 -51.4375 C 114.28125 -55.164062 107.5625 -57.03125 99.15625 -57.03125 L 33.578125 -57.03125 Z M 33.578125 -16.703125 "/></g></g></g><g fill="#000000" fill-opacity="1"><g transform="translate(228.539765, 222.408951)"><g><path d="M 76.234375 3.375 C 62.367188 3.375 50.078125 1.273438 39.359375 -2.921875 C 28.640625 -7.128906 20.226562 -12.9375 14.125 -20.34375 C 8.019531 -27.75 4.96875 -36.25 4.96875 -45.84375 C 4.96875 -55.195312 7.78125 -63.457031 13.40625 -70.625 C 19.039062 -77.789062 26.800781 -83.414062 36.6875 -87.5 C 46.582031 -91.59375 57.925781 -93.640625 70.71875 -93.640625 C 83.269531 -93.640625 94.375 -91.59375 104.03125 -87.5 C 113.6875 -83.414062 121.238281 -77.789062 126.6875 -70.625 C 132.132812 -63.457031 134.859375 -55.140625 134.859375 -45.671875 C 134.859375 -44.722656 134.800781 -43.503906 134.6875 -42.015625 C 134.570312 -40.535156 134.394531 -39.265625 134.15625 -38.203125 L 29.5 -38.203125 C 30.5625 -33.109375 33.398438 -28.695312 38.015625 -24.96875 C 42.640625 -21.238281 48.445312 -18.335938 55.4375 -16.265625 C 62.425781 -14.191406 70.007812 -13.15625 78.1875 -13.15625 C 85.289062 -13.15625 92.160156 -13.832031 98.796875 -15.1875 C 105.429688 -16.550781 111.472656 -18.390625 116.921875 -20.703125 C 122.367188 -23.015625 126.691406 -25.648438 129.890625 -28.609375 L 138.953125 -15.8125 C 134.804688 -12.144531 129.445312 -8.859375 122.875 -5.953125 C 116.300781 -3.046875 109.015625 -0.761719 101.015625 0.890625 C 93.015625 2.546875 84.753906 3.375 76.234375 3.375 Z M 28.96875 -52.0625 L 111.59375 -52.0625 C 111.113281 -57.269531 108.976562 -61.800781 105.1875 -65.65625 C 101.394531 -69.507812 96.445312 -72.472656 90.34375 -74.546875 C 84.25 -76.617188 77.472656 -77.65625 70.015625 -77.65625 C 62.785156 -77.65625 56.148438 -76.554688 50.109375 -74.359375 C 44.066406 -72.171875 39.175781 -69.148438 35.4375 -65.296875 C 31.707031 -61.453125 29.550781 -57.039062 28.96875 -52.0625 Z M 28.96875 -52.0625 "/></g></g></g><g fill="#000000" fill-opacity="1"><g transform="translate(372.987701, 222.408951)"><g><path d="M 59 40.6875 C 49.75 40.6875 40.832031 39.707031 32.25 37.75 C 23.664062 35.800781 16.023438 33.316406 9.328125 30.296875 C 2.640625 27.273438 -2.597656 24.109375 -6.390625 20.796875 L 2.671875 5.15625 C 6.691406 8.226562 11.601562 11.128906 17.40625 13.859375 C 23.21875 16.585938 29.585938 18.78125 36.515625 20.4375 C 43.441406 22.09375 50.640625 22.921875 58.109375 22.921875 C 68.171875 22.921875 76.875 21.46875 84.21875 18.5625 C 91.5625 15.664062 97.273438 11.582031 101.359375 6.3125 C 105.453125 1.039062 107.5 -5.148438 107.5 -12.265625 L 107.5 -21.140625 L 107.328125 -21.140625 C 103.773438 -13.203125 97.757812 -6.894531 89.28125 -2.21875 C 80.8125 2.457031 71.128906 4.796875 60.234375 4.796875 C 49.578125 4.796875 40.25 2.722656 32.25 -1.421875 C 24.25 -5.566406 18.03125 -11.367188 13.59375 -18.828125 C 9.15625 -26.296875 6.9375 -35.003906 6.9375 -44.953125 L 6.9375 -90.4375 L 29.5 -90.4375 L 29.5 -47.265625 C 29.5 -40.035156 31.035156 -33.722656 34.109375 -28.328125 C 37.191406 -22.941406 41.515625 -18.738281 47.078125 -15.71875 C 52.648438 -12.695312 59.109375 -11.1875 66.453125 -11.1875 C 74.742188 -11.1875 81.96875 -12.875 88.125 -16.25 C 94.289062 -19.632812 99.085938 -24.347656 102.515625 -30.390625 C 105.953125 -36.429688 107.671875 -43.535156 107.671875 -51.703125 L 107.671875 -90.4375 L 130.25 -90.4375 L 130.25 -11.546875 C 130.25 -1.003906 127.285156 8.203125 121.359375 16.078125 C 115.429688 23.953125 107.140625 30.019531 96.484375 34.28125 C 85.828125 38.550781 73.332031 40.6875 59 40.6875 Z M 59 40.6875 "/></g></g></g><g fill="#000000" fill-opacity="1"><g transform="translate(510.328745, 222.408951)"><g><path d="M 73.03125 3.375 C 59.289062 3.375 47.328125 1.363281 37.140625 -2.65625 C 26.953125 -6.6875 19.039062 -12.34375 13.40625 -19.625 C 7.78125 -26.914062 4.96875 -35.414062 4.96875 -45.125 C 4.96875 -54.957031 7.78125 -63.488281 13.40625 -70.71875 C 19.039062 -77.945312 26.953125 -83.570312 37.140625 -87.59375 C 47.328125 -91.625 59.289062 -93.640625 73.03125 -93.640625 C 86.882812 -93.640625 98.90625 -91.625 109.09375 -87.59375 C 119.28125 -83.570312 127.1875 -77.945312 132.8125 -70.71875 C 138.445312 -63.488281 141.265625 -54.957031 141.265625 -45.125 C 141.265625 -35.414062 138.445312 -26.914062 132.8125 -19.625 C 127.1875 -12.34375 119.28125 -6.6875 109.09375 -2.65625 C 98.90625 1.363281 86.882812 3.375 73.03125 3.375 Z M 73.03125 -12.796875 C 82.269531 -12.796875 90.296875 -14.128906 97.109375 -16.796875 C 103.921875 -19.460938 109.21875 -23.222656 113 -28.078125 C 116.789062 -32.929688 118.6875 -38.613281 118.6875 -45.125 C 118.6875 -51.644531 116.789062 -57.332031 113 -62.1875 C 109.21875 -67.039062 103.921875 -70.800781 97.109375 -73.46875 C 90.296875 -76.132812 82.269531 -77.46875 73.03125 -77.46875 C 63.90625 -77.46875 55.90625 -76.132812 49.03125 -73.46875 C 42.164062 -70.800781 36.835938 -67.039062 33.046875 -62.1875 C 29.253906 -57.332031 27.359375 -51.644531 27.359375 -45.125 C 27.359375 -38.613281 29.253906 -32.929688 33.046875 -28.078125 C 36.835938 -23.222656 42.164062 -19.460938 49.03125 -16.796875 C 55.90625 -14.128906 63.90625 -12.796875 73.03125 -12.796875 Z M 73.03125 -12.796875 "/></g></g></g><g fill="#000000" fill-opacity="1"><g transform="translate(656.55346, 222.408951)"><g><path d="M 80.5 -93.640625 C 96.007812 -93.640625 108.207031 -89.726562 117.09375 -81.90625 C 125.976562 -74.09375 130.421875 -63.316406 130.421875 -49.578125 L 130.421875 0 L 107.859375 0 L 107.859375 -47.09375 C 107.859375 -56.6875 104.773438 -64.175781 98.609375 -69.5625 C 92.453125 -74.957031 83.804688 -77.65625 72.671875 -77.65625 C 59.171875 -77.65625 48.597656 -74.273438 40.953125 -67.515625 C 33.316406 -60.765625 29.5 -51.410156 29.5 -39.453125 L 29.5 0 L 7.109375 0 L 7.109375 -90.4375 L 26.828125 -90.4375 L 29.3125 -68.234375 L 29.5 -68.234375 C 33.644531 -76.171875 40.1875 -82.390625 49.125 -86.890625 C 58.070312 -91.390625 68.53125 -93.640625 80.5 -93.640625 Z M 80.5 -93.640625 "/></g></g></g><g fill="#000000" fill-opacity="1"><g transform="translate(793.006131, 222.408951)"><g><path d="M 8.890625 0 L 8.890625 -125.984375 L 87.953125 -125.984375 C 111.765625 -125.984375 130.066406 -120.53125 142.859375 -109.625 C 155.648438 -98.726562 162.046875 -83.15625 162.046875 -62.90625 C 162.046875 -42.757812 155.648438 -27.238281 142.859375 -16.34375 C 130.066406 -5.445312 111.765625 0 87.953125 0 Z M 33.234375 -18.65625 L 85.828125 -18.65625 C 102.523438 -18.65625 115.375 -22.472656 124.375 -30.109375 C 133.382812 -37.753906 137.890625 -48.6875 137.890625 -62.90625 C 137.890625 -77.113281 133.382812 -88.007812 124.375 -95.59375 C 115.375 -103.175781 102.523438 -106.96875 85.828125 -106.96875 L 33.234375 -106.96875 Z M 33.234375 -18.65625 "/></g></g></g><g fill="#000000" fill-opacity="1"><g transform="translate(961.816455, 222.408951)"><g/></g></g></g></g></g></g></g></g></mask><clipPath id="d34c2ef2ea"><path d="M 0.597656 0 L 1034.902344 0 L 1034.902344 358 L 0.597656 358 Z M 0.597656 0 " clip-rule="nonzero"/></clipPath><clipPath id="0fa953e22d"><rect x="0" width="1035" y="0" height="358"/></clipPath><clipPath id="69444038f5"><rect x="0" width="1035" y="0" height="358"/></clipPath><clipPath id="6f1941b77b"><rect x="0" width="1035" y="0" height="358"/></clipPath><clipPath id="d0b7582bc1"><path d="M 0.597656 0 L 1034.902344 0 L 1034.902344 358 L 0.597656 358 Z M 0.597656 0 " clip-rule="nonzero"/></clipPath><clipPath id="b17251d7c7"><path d="M 0.597656 0 L 1034.902344 0 L 1034.902344 358 L 0.597656 358 Z M 0.597656 0 " clip-rule="nonzero"/></clipPath><clipPath id="b0b581bef3"><path d="M 0.597656 0 L 1034.902344 0 L 1034.902344 358 L 0.597656 358 Z M 0.597656 0 " clip-rule="nonzero"/></clipPath><clipPath id="a6264a2d72"><rect x="0" width="1035" y="0" height="358"/></clipPath><clipPath id="87d2b0b282"><path d="M 0.597656 0 L 1034.902344 0 L 1034.902344 358 L 0.597656 358 Z M 0.597656 0 " clip-rule="nonzero"/></clipPath><clipPath id="25fa16f8f6"><rect x="0" width="1035" y="0" height="358"/></clipPath><clipPath id="79191de830"><rect x="0" width="1035" y="0" height="358"/></clipPath><mask id="db0744cec8"><g filter="url(#a190c40cea)"><g><g clip-path="url(#79191de830)"><g clip-path="url(#87d2b0b282)"><g><g clip-path="url(#25fa16f8f6)"><g fill="#000000" fill-opacity="1"><g transform="translate(73.253779, 222.408951)"><g><path d="M 8.890625 0 L 8.890625 -125.984375 L 104.828125 -125.984375 C 113.597656 -125.984375 121.210938 -124.5625 127.671875 -121.71875 C 134.128906 -118.875 139.132812 -114.90625 142.6875 -109.8125 C 146.238281 -104.71875 148.015625 -98.675781 148.015625 -91.6875 C 148.015625 -85.289062 146.175781 -79.660156 142.5 -74.796875 C 138.832031 -69.941406 133.914062 -66.566406 127.75 -64.671875 L 127.75 -64.5 C 134.976562 -62.84375 140.753906 -59.316406 145.078125 -53.921875 C 149.398438 -48.535156 151.5625 -42.226562 151.5625 -35 C 151.5625 -28.007812 149.664062 -21.878906 145.875 -16.609375 C 142.09375 -11.335938 136.765625 -7.25 129.890625 -4.34375 C 123.015625 -1.445312 114.898438 0 105.546875 0 Z M 33.578125 -72.5 L 98.96875 -72.5 C 106.3125 -72.5 112.203125 -74.15625 116.640625 -77.46875 C 121.085938 -80.789062 123.3125 -85.234375 123.3125 -90.796875 C 123.3125 -96.484375 121.085938 -100.984375 116.640625 -104.296875 C 112.203125 -107.617188 106.253906 -109.28125 98.796875 -109.28125 L 33.578125 -109.28125 Z M 33.578125 -16.703125 L 99.15625 -16.703125 C 107.5625 -16.703125 114.28125 -18.535156 119.3125 -22.203125 C 124.351562 -25.878906 126.875 -30.796875 126.875 -36.953125 C 126.875 -42.878906 124.351562 -47.707031 119.3125 -51.4375 C 114.28125 -55.164062 107.5625 -57.03125 99.15625 -57.03125 L 33.578125 -57.03125 Z M 33.578125 -16.703125 "/></g></g></g><g fill="#000000" fill-opacity="1"><g transform="translate(228.539765, 222.408951)"><g><path d="M 76.234375 3.375 C 62.367188 3.375 50.078125 1.273438 39.359375 -2.921875 C 28.640625 -7.128906 20.226562 -12.9375 14.125 -20.34375 C 8.019531 -27.75 4.96875 -36.25 4.96875 -45.84375 C 4.96875 -55.195312 7.78125 -63.457031 13.40625 -70.625 C 19.039062 -77.789062 26.800781 -83.414062 36.6875 -87.5 C 46.582031 -91.59375 57.925781 -93.640625 70.71875 -93.640625 C 83.269531 -93.640625 94.375 -91.59375 104.03125 -87.5 C 113.6875 -83.414062 121.238281 -77.789062 126.6875 -70.625 C 132.132812 -63.457031 134.859375 -55.140625 134.859375 -45.671875 C 134.859375 -44.722656 134.800781 -43.503906 134.6875 -42.015625 C 134.570312 -40.535156 134.394531 -39.265625 134.15625 -38.203125 L 29.5 -38.203125 C 30.5625 -33.109375 33.398438 -28.695312 38.015625 -24.96875 C 42.640625 -21.238281 48.445312 -18.335938 55.4375 -16.265625 C 62.425781 -14.191406 70.007812 -13.15625 78.1875 -13.15625 C 85.289062 -13.15625 92.160156 -13.832031 98.796875 -15.1875 C 105.429688 -16.550781 111.472656 -18.390625 116.921875 -20.703125 C 122.367188 -23.015625 126.691406 -25.648438 129.890625 -28.609375 L 138.953125 -15.8125 C 134.804688 -12.144531 129.445312 -8.859375 122.875 -5.953125 C 116.300781 -3.046875 109.015625 -0.761719 101.015625 0.890625 C 93.015625 2.546875 84.753906 3.375 76.234375 3.375 Z M 28.96875 -52.0625 L 111.59375 -52.0625 C 111.113281 -57.269531 108.976562 -61.800781 105.1875 -65.65625 C 101.394531 -69.507812 96.445312 -72.472656 90.34375 -74.546875 C 84.25 -76.617188 77.472656 -77.65625 70.015625 -77.65625 C 62.785156 -77.65625 56.148438 -76.554688 50.109375 -74.359375 C 44.066406 -72.171875 39.175781 -69.148438 35.4375 -65.296875 C 31.707031 -61.453125 29.550781 -57.039062 28.96875 -52.0625 Z M 28.96875 -52.0625 "/></g></g></g><g fill="#000000" fill-opacity="1"><g transform="translate(372.987701, 222.408951)"><g><path d="M 59 40.6875 C 49.75 40.6875 40.832031 39.707031 32.25 37.75 C 23.664062 35.800781 16.023438 33.316406 9.328125 30.296875 C 2.640625 27.273438 -2.597656 24.109375 -6.390625 20.796875 L 2.671875 5.15625 C 6.691406 8.226562 11.601562 11.128906 17.40625 13.859375 C 23.21875 16.585938 29.585938 18.78125 36.515625 20.4375 C 43.441406 22.09375 50.640625 22.921875 58.109375 22.921875 C 68.171875 22.921875 76.875 21.46875 84.21875 18.5625 C 91.5625 15.664062 97.273438 11.582031 101.359375 6.3125 C 105.453125 1.039062 107.5 -5.148438 107.5 -12.265625 L 107.5 -21.140625 L 107.328125 -21.140625 C 103.773438 -13.203125 97.757812 -6.894531 89.28125 -2.21875 C 80.8125 2.457031 71.128906 4.796875 60.234375 4.796875 C 49.578125 4.796875 40.25 2.722656 32.25 -1.421875 C 24.25 -5.566406 18.03125 -11.367188 13.59375 -18.828125 C 9.15625 -26.296875 6.9375 -35.003906 6.9375 -44.953125 L 6.9375 -90.4375 L 29.5 -90.4375 L 29.5 -47.265625 C 29.5 -40.035156 31.035156 -33.722656 34.109375 -28.328125 C 37.191406 -22.941406 41.515625 -18.738281 47.078125 -15.71875 C 52.648438 -12.695312 59.109375 -11.1875 66.453125 -11.1875 C 74.742188 -11.1875 81.96875 -12.875 88.125 -16.25 C 94.289062 -19.632812 99.085938 -24.347656 102.515625 -30.390625 C 105.953125 -36.429688 107.671875 -43.535156 107.671875 -51.703125 L 107.671875 -90.4375 L 130.25 -90.4375 L 130.25 -11.546875 C 130.25 -1.003906 127.285156 8.203125 121.359375 16.078125 C 115.429688 23.953125 107.140625 30.019531 96.484375 34.28125 C 85.828125 38.550781 73.332031 40.6875 59 40.6875 Z M 59 40.6875 "/></g></g></g><g fill="#000000" fill-opacity="1"><g transform="translate(510.328745, 222.408951)"><g><path d="M 73.03125 3.375 C 59.289062 3.375 47.328125 1.363281 37.140625 -2.65625 C 26.953125 -6.6875 19.039062 -12.34375 13.40625 -19.625 C 7.78125 -26.914062 4.96875 -35.414062 4.96875 -45.125 C 4.96875 -54.957031 7.78125 -63.488281 13.40625 -70.71875 C 19.039062 -77.945312 26.953125 -83.570312 37.140625 -87.59375 C 47.328125 -91.625 59.289062 -93.640625 73.03125 -93.640625 C 86.882812 -93.640625 98.90625 -91.625 109.09375 -87.59375 C 119.28125 -83.570312 127.1875 -77.945312 132.8125 -70.71875 C 138.445312 -63.488281 141.265625 -54.957031 141.265625 -45.125 C 141.265625 -35.414062 138.445312 -26.914062 132.8125 -19.625 C 127.1875 -12.34375 119.28125 -6.6875 109.09375 -2.65625 C 98.90625 1.363281 86.882812 3.375 73.03125 3.375 Z M 73.03125 -12.796875 C 82.269531 -12.796875 90.296875 -14.128906 97.109375 -16.796875 C 103.921875 -19.460938 109.21875 -23.222656 113 -28.078125 C 116.789062 -32.929688 118.6875 -38.613281 118.6875 -45.125 C 118.6875 -51.644531 116.789062 -57.332031 113 -62.1875 C 109.21875 -67.039062 103.921875 -70.800781 97.109375 -73.46875 C 90.296875 -76.132812 82.269531 -77.46875 73.03125 -77.46875 C 63.90625 -77.46875 55.90625 -76.132812 49.03125 -73.46875 C 42.164062 -70.800781 36.835938 -67.039062 33.046875 -62.1875 C 29.253906 -57.332031 27.359375 -51.644531 27.359375 -45.125 C 27.359375 -38.613281 29.253906 -32.929688 33.046875 -28.078125 C 36.835938 -23.222656 42.164062 -19.460938 49.03125 -16.796875 C 55.90625 -14.128906 63.90625 -12.796875 73.03125 -12.796875 Z M 73.03125 -12.796875 "/></g></g></g><g fill="#000000" fill-opacity="1"><g transform="translate(656.55346, 222.408951)"><g><path d="M 80.5 -93.640625 C 96.007812 -93.640625 108.207031 -89.726562 117.09375 -81.90625 C 125.976562 -74.09375 130.421875 -63.316406 130.421875 -49.578125 L 130.421875 0 L 107.859375 0 L 107.859375 -47.09375 C 107.859375 -56.6875 104.773438 -64.175781 98.609375 -69.5625 C 92.453125 -74.957031 83.804688 -77.65625 72.671875 -77.65625 C 59.171875 -77.65625 48.597656 -74.273438 40.953125 -67.515625 C 33.316406 -60.765625 29.5 -51.410156 29.5 -39.453125 L 29.5 0 L 7.109375 0 L 7.109375 -90.4375 L 26.828125 -90.4375 L 29.3125 -68.234375 L 29.5 -68.234375 C 33.644531 -76.171875 40.1875 -82.390625 49.125 -86.890625 C 58.070312 -91.390625 68.53125 -93.640625 80.5 -93.640625 Z M 80.5 -93.640625 "/></g></g></g><g fill="#000000" fill-opacity="1"><g transform="translate(793.006131, 222.408951)"><g><path d="M 8.890625 0 L 8.890625 -125.984375 L 87.953125 -125.984375 C 111.765625 -125.984375 130.066406 -120.53125 142.859375 -109.625 C 155.648438 -98.726562 162.046875 -83.15625 162.046875 -62.90625 C 162.046875 -42.757812 155.648438 -27.238281 142.859375 -16.34375 C 130.066406 -5.445312 111.765625 0 87.953125 0 Z M 33.234375 -18.65625 L 85.828125 -18.65625 C 102.523438 -18.65625 115.375 -22.472656 124.375 -30.109375 C 133.382812 -37.753906 137.890625 -48.6875 137.890625 -62.90625 C 137.890625 -77.113281 133.382812 -88.007812 124.375 -95.59375 C 115.375 -103.175781 102.523438 -106.96875 85.828125 -106.96875 L 33.234375 -106.96875 Z M 33.234375 -18.65625 "/></g></g></g><g fill="#000000" fill-opacity="1"><g transform="translate(961.816455, 222.408951)"><g/></g></g></g></g></g></g></g></g></mask><clipPath id="20a19bea18"><path d="M 0.597656 0 L 1034.902344 0 L 1034.902344 358 L 0.597656 358 Z M 0.597656 0 " clip-rule="nonzero"/></clipPath><clipPath id="400dccf07b"><rect x="0" width="1035" y="0" height="358"/></clipPath><clipPath id="ddfde7db67"><rect x="0" width="1035" y="0" height="358"/></clipPath><clipPath id="b2fa0afa7f"><rect x="0" width="1035" y="0" height="358"/></clipPath></defs><g clip-path="url(#2dae92703c)"><g><g clip-path="url(#6f1941b77b)"><g clip-path="url(#e457273603)"><g><g clip-path="url(#69444038f5)"><g clip-path="url(#d2220310a5)"><g mask="url(#7b2dbc60a9)"><g><g clip-path="url(#0fa953e22d)"><g clip-path="url(#d34c2ef2ea)"><path fill="url(#c758178599)" d="M 0.597656 0 L 0.597656 358 L 1034.902344 358 L 1034.902344 0 Z M 0.597656 0 " fill-rule="nonzero"/></g></g></g></g></g></g></g></g></g></g><g><g clip-path="url(#b2fa0afa7f)"><g clip-path="url(#d0b7582bc1)"><g><g clip-path="url(#ddfde7db67)"><g clip-path="url(#b17251d7c7)"><g mask="url(#db0744cec8)"><g><g clip-path="url(#400dccf07b)"><g clip-path="url(#20a19bea18)"><path fill="url(#c758178599)" d="M 0.597656 0 L 0.597656 358 L 1034.902344 358 L 1034.902344 0 Z M 0.597656 0 " fill-rule="nonzero"/></g></g></g></g></g></g></g></g></g></g></g></svg>