<svg xmlns="http://www.w3.org/2000/svg" xmlns:xlink="http://www.w3.org/1999/xlink" width="1965" zoomAndPan="magnify" viewBox="0 0 1473.75 480.749983" height="641" preserveAspectRatio="xMidYMid meet" version="1.0"><defs><filter x="0%" y="0%" width="100%" height="100%" id="b372485f39"><feColorMatrix values="0 0 0 0 1 0 0 0 0 1 0 0 0 0 1 0 0 0 1 0" color-interpolation-filters="sRGB"/></filter><g/><clipPath id="e3321b3d85"><path d="M 0.257812 0 L 1473.242188 0 L 1473.242188 480.5 L 0.257812 480.5 Z M 0.257812 0 " clip-rule="nonzero"/></clipPath><clipPath id="97cb740925"><path d="M 0.257812 0 L 1473.242188 0 L 1473.242188 480.5 L 0.257812 480.5 Z M 0.257812 0 " clip-rule="nonzero"/></clipPath><clipPath id="1a4614ca1d"><path d="M 0.257812 0 L 1473.242188 0 L 1473.242188 480.5 L 0.257812 480.5 Z M 0.257812 0 " clip-rule="nonzero"/></clipPath><clipPath id="eca815e8be"><path d="M 0.257812 0 L 1473.242188 0 L 1473.242188 480.5 L 0.257812 480.5 Z M 0.257812 0 " clip-rule="nonzero"/></clipPath><linearGradient x1="41.968323" gradientTransform="matrix(3.585462, 0, 0, 3.581535, 98.768302, 121.897296)" y1="-103.477821" x2="314.458129" gradientUnits="userSpaceOnUse" y2="169.013282" id="3a793e1bcc"><stop stop-opacity="1" stop-color="rgb(20.388794%, 56.858826%, 100%)" offset="0"/><stop stop-opacity="1" stop-color="rgb(20.205688%, 56.692505%, 100%)" offset="0.125"/><stop stop-opacity="1" stop-color="rgb(19.918823%, 56.434631%, 100%)" offset="0.132812"/><stop stop-opacity="1" stop-color="rgb(19.714355%, 56.248474%, 100%)" offset="0.140625"/><stop stop-opacity="1" stop-color="rgb(19.508362%, 56.063843%, 100%)" offset="0.148438"/><stop stop-opacity="1" stop-color="rgb(19.303894%, 55.877686%, 100%)" offset="0.15625"/><stop stop-opacity="1" stop-color="rgb(19.0979%, 55.691528%, 100%)" offset="0.164062"/><stop stop-opacity="1" stop-color="rgb(18.893433%, 55.506897%, 100%)" offset="0.171875"/><stop stop-opacity="1" stop-color="rgb(18.687439%, 55.32074%, 100%)" offset="0.179688"/><stop stop-opacity="1" stop-color="rgb(18.481445%, 55.136108%, 100%)" offset="0.1875"/><stop stop-opacity="1" stop-color="rgb(18.276978%, 54.949951%, 100%)" offset="0.195313"/><stop stop-opacity="1" stop-color="rgb(18.070984%, 54.763794%, 100%)" offset="0.203125"/><stop stop-opacity="1" stop-color="rgb(17.866516%, 54.579163%, 100%)" offset="0.210938"/><stop stop-opacity="1" stop-color="rgb(17.660522%, 54.393005%, 100%)" offset="0.21875"/><stop stop-opacity="1" stop-color="rgb(17.456055%, 54.208374%, 100%)" offset="0.226562"/><stop stop-opacity="1" stop-color="rgb(17.250061%, 54.022217%, 100%)" offset="0.234375"/><stop stop-opacity="1" stop-color="rgb(17.045593%, 53.83606%, 100%)" offset="0.242188"/><stop stop-opacity="1" stop-color="rgb(16.8396%, 53.651428%, 100%)" offset="0.246175"/><stop stop-opacity="1" stop-color="rgb(16.737366%, 53.55835%, 100%)" offset="0.25"/><stop stop-opacity="1" stop-color="rgb(16.635132%, 53.465271%, 100%)" offset="0.257812"/><stop stop-opacity="1" stop-color="rgb(16.429138%, 53.28064%, 100%)" offset="0.265625"/><stop stop-opacity="1" stop-color="rgb(16.22467%, 53.094482%, 100%)" offset="0.273438"/><stop stop-opacity="1" stop-color="rgb(16.018677%, 52.908325%, 100%)" offset="0.28125"/><stop stop-opacity="1" stop-color="rgb(15.812683%, 52.723694%, 100%)" offset="0.289063"/><stop stop-opacity="1" stop-color="rgb(15.608215%, 52.537537%, 100%)" offset="0.296875"/><stop stop-opacity="1" stop-color="rgb(15.402222%, 52.352905%, 100%)" offset="0.304688"/><stop stop-opacity="1" stop-color="rgb(15.197754%, 52.166748%, 100%)" offset="0.3125"/><stop stop-opacity="1" stop-color="rgb(14.99176%, 51.980591%, 100%)" offset="0.320313"/><stop stop-opacity="1" stop-color="rgb(14.787292%, 51.795959%, 100%)" offset="0.328125"/><stop stop-opacity="1" stop-color="rgb(14.581299%, 51.609802%, 100%)" offset="0.335938"/><stop stop-opacity="1" stop-color="rgb(14.376831%, 51.425171%, 100%)" offset="0.34375"/><stop stop-opacity="1" stop-color="rgb(14.170837%, 51.239014%, 100%)" offset="0.351562"/><stop stop-opacity="1" stop-color="rgb(13.96637%, 51.052856%, 100%)" offset="0.359375"/><stop stop-opacity="1" stop-color="rgb(13.760376%, 50.868225%, 100%)" offset="0.367188"/><stop stop-opacity="1" stop-color="rgb(13.555908%, 50.682068%, 100%)" offset="0.375"/><stop stop-opacity="1" stop-color="rgb(13.349915%, 50.495911%, 100%)" offset="0.382813"/><stop stop-opacity="1" stop-color="rgb(13.143921%, 50.311279%, 100%)" offset="0.390625"/><stop stop-opacity="1" stop-color="rgb(12.939453%, 50.125122%, 100%)" offset="0.398438"/><stop stop-opacity="1" stop-color="rgb(12.733459%, 49.940491%, 100%)" offset="0.40625"/><stop stop-opacity="1" stop-color="rgb(12.528992%, 49.754333%, 100%)" offset="0.414063"/><stop stop-opacity="1" stop-color="rgb(12.322998%, 49.568176%, 100%)" offset="0.421875"/><stop stop-opacity="1" stop-color="rgb(12.11853%, 49.383545%, 100%)" offset="0.429688"/><stop stop-opacity="1" stop-color="rgb(11.912537%, 49.197388%, 100%)" offset="0.4375"/><stop stop-opacity="1" stop-color="rgb(11.708069%, 49.012756%, 100%)" offset="0.445313"/><stop stop-opacity="1" stop-color="rgb(11.502075%, 48.826599%, 100%)" offset="0.453125"/><stop stop-opacity="1" stop-color="rgb(11.297607%, 48.640442%, 100%)" offset="0.460938"/><stop stop-opacity="1" stop-color="rgb(11.091614%, 48.455811%, 100%)" offset="0.46875"/><stop stop-opacity="1" stop-color="rgb(10.887146%, 48.269653%, 100%)" offset="0.476562"/><stop stop-opacity="1" stop-color="rgb(10.681152%, 48.085022%, 100%)" offset="0.484375"/><stop stop-opacity="1" stop-color="rgb(10.476685%, 47.898865%, 100%)" offset="0.492188"/><stop stop-opacity="1" stop-color="rgb(10.270691%, 47.712708%, 100%)" offset="0.5"/><stop stop-opacity="1" stop-color="rgb(10.064697%, 47.528076%, 100%)" offset="0.507813"/><stop stop-opacity="1" stop-color="rgb(9.860229%, 47.341919%, 100%)" offset="0.515625"/><stop stop-opacity="1" stop-color="rgb(9.654236%, 47.157288%, 100%)" offset="0.523438"/><stop stop-opacity="1" stop-color="rgb(9.449768%, 46.97113%, 100%)" offset="0.53125"/><stop stop-opacity="1" stop-color="rgb(9.243774%, 46.784973%, 100%)" offset="0.539062"/><stop stop-opacity="1" stop-color="rgb(9.039307%, 46.600342%, 100%)" offset="0.546875"/><stop stop-opacity="1" stop-color="rgb(8.833313%, 46.414185%, 100%)" offset="0.554688"/><stop stop-opacity="1" stop-color="rgb(8.628845%, 46.229553%, 100%)" offset="0.5625"/><stop stop-opacity="1" stop-color="rgb(8.422852%, 46.043396%, 100%)" offset="0.570312"/><stop stop-opacity="1" stop-color="rgb(8.218384%, 45.857239%, 100%)" offset="0.578125"/><stop stop-opacity="1" stop-color="rgb(8.01239%, 45.672607%, 100%)" offset="0.585938"/><stop stop-opacity="1" stop-color="rgb(7.807922%, 45.48645%, 100%)" offset="0.59375"/><stop stop-opacity="1" stop-color="rgb(7.601929%, 45.301819%, 100%)" offset="0.601562"/><stop stop-opacity="1" stop-color="rgb(7.395935%, 45.115662%, 100%)" offset="0.609375"/><stop stop-opacity="1" stop-color="rgb(7.191467%, 44.929504%, 100%)" offset="0.617188"/><stop stop-opacity="1" stop-color="rgb(6.985474%, 44.744873%, 100%)" offset="0.625"/><stop stop-opacity="1" stop-color="rgb(6.781006%, 44.558716%, 100%)" offset="0.632813"/><stop stop-opacity="1" stop-color="rgb(6.575012%, 44.374084%, 100%)" offset="0.640625"/><stop stop-opacity="1" stop-color="rgb(6.370544%, 44.187927%, 100%)" offset="0.648438"/><stop stop-opacity="1" stop-color="rgb(6.164551%, 44.00177%, 100%)" offset="0.65625"/><stop stop-opacity="1" stop-color="rgb(5.960083%, 43.817139%, 100%)" offset="0.664063"/><stop stop-opacity="1" stop-color="rgb(5.754089%, 43.630981%, 100%)" offset="0.671875"/><stop stop-opacity="1" stop-color="rgb(5.549622%, 43.44635%, 100%)" offset="0.679688"/><stop stop-opacity="1" stop-color="rgb(5.343628%, 43.260193%, 100%)" offset="0.6875"/><stop stop-opacity="1" stop-color="rgb(5.13916%, 43.074036%, 100%)" offset="0.695313"/><stop stop-opacity="1" stop-color="rgb(4.933167%, 42.889404%, 100%)" offset="0.703125"/><stop stop-opacity="1" stop-color="rgb(4.727173%, 42.703247%, 100%)" offset="0.710938"/><stop stop-opacity="1" stop-color="rgb(4.522705%, 42.518616%, 100%)" offset="0.71875"/><stop stop-opacity="1" stop-color="rgb(4.316711%, 42.332458%, 100%)" offset="0.726562"/><stop stop-opacity="1" stop-color="rgb(4.112244%, 42.146301%, 100%)" offset="0.734375"/><stop stop-opacity="1" stop-color="rgb(3.90625%, 41.96167%, 100%)" offset="0.742188"/><stop stop-opacity="1" stop-color="rgb(3.701782%, 41.775513%, 100%)" offset="0.75"/><stop stop-opacity="1" stop-color="rgb(3.495789%, 41.590881%, 100%)" offset="0.753825"/><stop stop-opacity="1" stop-color="rgb(3.393555%, 41.497803%, 100%)" offset="0.757812"/><stop stop-opacity="1" stop-color="rgb(3.291321%, 41.404724%, 100%)" offset="0.765625"/><stop stop-opacity="1" stop-color="rgb(3.085327%, 41.218567%, 100%)" offset="0.773438"/><stop stop-opacity="1" stop-color="rgb(2.880859%, 41.033936%, 100%)" offset="0.78125"/><stop stop-opacity="1" stop-color="rgb(2.674866%, 40.847778%, 100%)" offset="0.789062"/><stop stop-opacity="1" stop-color="rgb(2.470398%, 40.661621%, 100%)" offset="0.796875"/><stop stop-opacity="1" stop-color="rgb(2.264404%, 40.47699%, 100%)" offset="0.804688"/><stop stop-opacity="1" stop-color="rgb(2.059937%, 40.290833%, 100%)" offset="0.8125"/><stop stop-opacity="1" stop-color="rgb(1.853943%, 40.106201%, 100%)" offset="0.820312"/><stop stop-opacity="1" stop-color="rgb(1.647949%, 39.920044%, 100%)" offset="0.828125"/><stop stop-opacity="1" stop-color="rgb(1.443481%, 39.733887%, 100%)" offset="0.835938"/><stop stop-opacity="1" stop-color="rgb(1.237488%, 39.549255%, 100%)" offset="0.84375"/><stop stop-opacity="1" stop-color="rgb(1.03302%, 39.363098%, 100%)" offset="0.851562"/><stop stop-opacity="1" stop-color="rgb(0.827026%, 39.178467%, 100%)" offset="0.859375"/><stop stop-opacity="1" stop-color="rgb(0.622559%, 38.99231%, 100%)" offset="0.867187"/><stop stop-opacity="1" stop-color="rgb(0.416565%, 38.806152%, 100%)" offset="0.875"/><stop stop-opacity="1" stop-color="rgb(0.157166%, 38.571167%, 100%)" offset="1"/></linearGradient><clipPath id="ab17080b66"><rect x="0" width="1474" y="0" height="481"/></clipPath><clipPath id="a692dcbf27"><path d="M 0.257812 0 L 1473.242188 0 L 1473.242188 480.5 L 0.257812 480.5 Z M 0.257812 0 " clip-rule="nonzero"/></clipPath><clipPath id="3137588168"><rect x="0" width="1474" y="0" height="481"/></clipPath><clipPath id="ea80ae1579"><rect x="0" width="1474" y="0" height="481"/></clipPath><mask id="4a2032a17a"><g filter="url(#b372485f39)"><g transform="matrix(1, 0, 0, 1, 0, 0)"><g clip-path="url(#ea80ae1579)"><g clip-path="url(#a692dcbf27)"><g transform="matrix(1, 0, 0, 1, 0, 0)"><g clip-path="url(#3137588168)"><g fill="#000000" fill-opacity="1"><g transform="translate(97.991227, 297.505796)"><g><path d="M 75.359375 4.3125 C 54.617188 4.3125 38.226562 -0.945312 26.1875 -11.46875 C 14.15625 -22 8.140625 -36.515625 8.140625 -55.015625 L 8.140625 -121.765625 L 38.515625 -121.765625 L 38.515625 -58.375 C 38.515625 -45.457031 42.660156 -35.367188 50.953125 -28.109375 C 59.242188 -20.847656 70.882812 -17.21875 85.875 -17.21875 C 104.0625 -17.21875 118.296875 -21.765625 128.578125 -30.859375 C 138.867188 -39.953125 144.015625 -52.550781 144.015625 -68.65625 L 144.015625 -121.765625 L 174.15625 -121.765625 L 174.15625 0 L 147.59375 0 L 144.25 -29.90625 L 144.015625 -29.90625 C 138.585938 -19.21875 129.8125 -10.84375 117.6875 -4.78125 C 105.570312 1.28125 91.460938 4.3125 75.359375 4.3125 Z M 75.359375 4.3125 "/></g></g></g><g fill="#000000" fill-opacity="1"><g transform="translate(281.705779, 297.505796)"><g><path d="M 108.359375 -126.0625 C 129.253906 -126.0625 145.679688 -120.796875 157.640625 -110.265625 C 169.609375 -99.742188 175.59375 -85.234375 175.59375 -66.734375 L 175.59375 0 L 145.203125 0 L 145.203125 -63.390625 C 145.203125 -76.304688 141.054688 -86.390625 132.765625 -93.640625 C 124.472656 -100.898438 112.832031 -104.53125 97.84375 -104.53125 C 79.65625 -104.53125 65.414062 -99.984375 55.125 -90.890625 C 44.84375 -81.804688 39.703125 -69.210938 39.703125 -53.109375 L 39.703125 0 L 9.5625 0 L 9.5625 -121.765625 L 36.125 -121.765625 L 39.46875 -91.859375 L 39.703125 -91.859375 C 45.285156 -102.546875 54.097656 -110.914062 66.140625 -116.96875 C 78.179688 -123.03125 92.253906 -126.0625 108.359375 -126.0625 Z M 108.359375 -126.0625 "/></g></g></g><g fill="#000000" fill-opacity="1"><g transform="translate(465.420331, 297.505796)"><g><path d="M 26.796875 -141.859375 C 21.210938 -141.859375 16.664062 -143.492188 13.15625 -146.765625 C 9.644531 -150.035156 7.890625 -154.300781 7.890625 -159.5625 C 7.890625 -164.820312 9.644531 -169.085938 13.15625 -172.359375 C 16.664062 -175.628906 21.210938 -177.265625 26.796875 -177.265625 C 32.535156 -177.265625 37.195312 -175.628906 40.78125 -172.359375 C 44.375 -169.085938 46.171875 -164.820312 46.171875 -159.5625 C 46.171875 -154.300781 44.375 -150.035156 40.78125 -146.765625 C 37.195312 -143.492188 32.535156 -141.859375 26.796875 -141.859375 Z M 11.71875 0 L 11.71875 -121.765625 L 42.109375 -121.765625 L 42.109375 0 Z M 11.71875 0 "/></g></g></g><g fill="#000000" fill-opacity="1"><g transform="translate(519.482149, 297.505796)"><g><path d="M 41.390625 0 L 41.390625 -100.46875 L 0.484375 -100.46875 L 0.484375 -121.765625 L 41.390625 -121.765625 L 41.390625 -130.140625 C 41.390625 -146.085938 46.609375 -158.445312 57.046875 -167.21875 C 67.492188 -175.988281 82.128906 -180.375 100.953125 -180.375 C 112.585938 -180.375 123.03125 -178.300781 132.28125 -174.15625 C 141.53125 -170.007812 148.628906 -164.1875 153.578125 -156.6875 L 139.46875 -141.140625 C 135.957031 -146.398438 131.09375 -150.460938 124.875 -153.328125 C 118.65625 -156.203125 111.796875 -157.640625 104.296875 -157.640625 C 94.085938 -157.640625 86.113281 -155.007812 80.375 -149.75 C 74.632812 -144.488281 71.765625 -137.070312 71.765625 -127.5 L 71.765625 -121.765625 L 146.640625 -121.765625 L 146.640625 -100.46875 L 71.765625 -100.46875 L 71.765625 0 Z M 41.390625 0 "/></g></g></g><g fill="#000000" fill-opacity="1"><g transform="translate(659.420392, 297.505796)"><g><path d="M 102.625 4.546875 C 83.96875 4.546875 67.421875 1.71875 52.984375 -3.9375 C 38.554688 -9.601562 27.234375 -17.421875 19.015625 -27.390625 C 10.804688 -37.359375 6.703125 -48.800781 6.703125 -61.71875 C 6.703125 -74.3125 10.488281 -85.429688 18.0625 -95.078125 C 25.632812 -104.734375 36.078125 -112.3125 49.390625 -117.8125 C 62.710938 -123.3125 77.984375 -126.0625 95.203125 -126.0625 C 112.109375 -126.0625 127.0625 -123.3125 140.0625 -117.8125 C 153.0625 -112.3125 163.226562 -104.734375 170.5625 -95.078125 C 177.894531 -85.429688 181.5625 -74.234375 181.5625 -61.484375 C 181.5625 -60.203125 181.484375 -58.5625 181.328125 -56.5625 C 181.171875 -54.570312 180.929688 -52.863281 180.609375 -51.4375 L 39.703125 -51.4375 C 41.140625 -44.570312 44.96875 -38.628906 51.1875 -33.609375 C 57.40625 -28.585938 65.21875 -24.679688 74.625 -21.890625 C 84.039062 -19.097656 94.25 -17.703125 105.25 -17.703125 C 114.820312 -17.703125 124.070312 -18.617188 133 -20.453125 C 141.9375 -22.285156 150.070312 -24.753906 157.40625 -27.859375 C 164.738281 -30.972656 170.5625 -34.523438 174.875 -38.515625 L 187.0625 -21.296875 C 181.488281 -16.347656 174.273438 -11.921875 165.421875 -8.015625 C 156.566406 -4.109375 146.753906 -1.039062 135.984375 1.1875 C 125.222656 3.425781 114.101562 4.546875 102.625 4.546875 Z M 39 -70.09375 L 150.234375 -70.09375 C 149.585938 -77.101562 146.710938 -83.203125 141.609375 -88.390625 C 136.515625 -93.578125 129.859375 -97.5625 121.640625 -100.34375 C 113.429688 -103.132812 104.300781 -104.53125 94.25 -104.53125 C 84.519531 -104.53125 75.585938 -103.054688 67.453125 -100.109375 C 59.328125 -97.160156 52.75 -93.09375 47.71875 -87.90625 C 42.695312 -82.726562 39.789062 -76.789062 39 -70.09375 Z M 39 -70.09375 "/></g></g></g><g fill="#000000" fill-opacity="1"><g transform="translate(853.899491, 297.505796)"><g><path d="M 93.78125 4.546875 C 80.375 4.546875 67.648438 3.03125 55.609375 0 C 43.578125 -3.03125 33.175781 -7.21875 24.40625 -12.5625 C 15.632812 -17.90625 9.175781 -24.003906 5.03125 -30.859375 L 20.09375 -45.453125 C 23.445312 -39.867188 28.671875 -34.84375 35.765625 -30.375 C 42.859375 -25.914062 51.304688 -22.445312 61.109375 -19.96875 C 70.921875 -17.5 81.332031 -16.265625 92.34375 -16.265625 C 106.53125 -16.265625 117.929688 -17.898438 126.546875 -21.171875 C 135.160156 -24.441406 139.46875 -28.785156 139.46875 -34.203125 C 139.46875 -38.828125 136.4375 -42.335938 130.375 -44.734375 C 124.3125 -47.128906 115.859375 -48.882812 105.015625 -50 L 71.765625 -52.875 C 60.765625 -53.988281 51.113281 -55.78125 42.8125 -58.25 C 34.519531 -60.71875 28.101562 -64.222656 23.5625 -68.765625 C 19.019531 -73.316406 16.75 -79.257812 16.75 -86.59375 C 16.75 -95.207031 19.695312 -102.425781 25.59375 -108.25 C 31.5 -114.070312 39.671875 -118.492188 50.109375 -121.515625 C 60.554688 -124.546875 72.398438 -126.0625 85.640625 -126.0625 C 95.367188 -126.0625 104.695312 -124.984375 113.625 -122.828125 C 122.5625 -120.679688 130.65625 -117.691406 137.90625 -113.859375 C 145.164062 -110.035156 151.023438 -105.570312 155.484375 -100.46875 L 141.859375 -85.40625 C 136.597656 -91.457031 128.78125 -96.476562 118.40625 -100.46875 C 108.039062 -104.457031 96.957031 -106.453125 85.15625 -106.453125 C 73.519531 -106.453125 63.789062 -104.9375 55.96875 -101.90625 C 48.15625 -98.875 44.25 -94.804688 44.25 -89.703125 C 44.25 -85.242188 46.878906 -81.976562 52.140625 -79.90625 C 57.410156 -77.832031 65.148438 -76.316406 75.359375 -75.359375 L 109.5625 -72 C 121.039062 -70.882812 131.125 -69.09375 139.8125 -66.625 C 148.507812 -64.15625 155.25 -60.523438 160.03125 -55.734375 C 164.820312 -50.953125 167.21875 -44.492188 167.21875 -36.359375 C 167.21875 -27.585938 164.023438 -20.128906 157.640625 -13.984375 C 151.265625 -7.847656 142.535156 -3.222656 131.453125 -0.109375 C 120.367188 2.992188 107.8125 4.546875 93.78125 4.546875 Z M 93.78125 4.546875 "/></g></g></g><g fill="#000000" fill-opacity="1"><g transform="translate(1019.911989, 297.505796)"><g><path d="M 95.921875 4.546875 C 78.546875 4.546875 65.113281 0.441406 55.625 -7.765625 C 46.132812 -15.984375 41.390625 -27.585938 41.390625 -42.578125 L 41.390625 -100.46875 L 0.484375 -100.46875 L 0.484375 -121.765625 L 41.140625 -121.765625 L 41.140625 -158.125 L 71.765625 -164.34375 L 71.765625 -121.765625 L 149.515625 -121.765625 L 149.515625 -100.46875 L 71.765625 -100.46875 L 71.765625 -47.359375 C 71.609375 -37.953125 74.039062 -30.738281 79.0625 -25.71875 C 84.082031 -20.695312 91.457031 -18.1875 101.1875 -18.1875 C 109.800781 -18.1875 117.492188 -20.378906 124.265625 -24.765625 C 131.046875 -29.148438 136.429688 -35.007812 140.421875 -42.34375 L 154.78125 -27.03125 C 149.195312 -17.144531 141.300781 -9.410156 131.09375 -3.828125 C 120.882812 1.753906 109.160156 4.546875 95.921875 4.546875 Z M 95.921875 4.546875 "/></g></g></g><g fill="#000000" fill-opacity="1"><g transform="translate(1178.270182, 297.505796)"><g><path d="M 98.3125 4.546875 C 79.8125 4.546875 63.703125 1.835938 49.984375 -3.578125 C 36.273438 -9.003906 25.632812 -16.617188 18.0625 -26.421875 C 10.488281 -36.234375 6.703125 -47.679688 6.703125 -60.765625 C 6.703125 -73.992188 10.488281 -85.472656 18.0625 -95.203125 C 25.632812 -104.929688 36.273438 -112.503906 49.984375 -117.921875 C 63.703125 -123.347656 79.8125 -126.0625 98.3125 -126.0625 C 116.976562 -126.0625 133.164062 -123.347656 146.875 -117.921875 C 160.59375 -112.503906 171.238281 -104.929688 178.8125 -95.203125 C 186.382812 -85.472656 190.171875 -73.992188 190.171875 -60.765625 C 190.171875 -47.679688 186.382812 -36.234375 178.8125 -26.421875 C 171.238281 -16.617188 160.59375 -9.003906 146.875 -3.578125 C 133.164062 1.835938 116.976562 4.546875 98.3125 4.546875 Z M 98.3125 -17.21875 C 110.757812 -17.21875 121.566406 -19.007812 130.734375 -22.59375 C 139.898438 -26.1875 147.035156 -31.253906 152.140625 -37.796875 C 157.242188 -44.335938 159.796875 -51.992188 159.796875 -60.765625 C 159.796875 -69.535156 157.242188 -77.1875 152.140625 -83.71875 C 147.035156 -90.257812 139.898438 -95.320312 130.734375 -98.90625 C 121.566406 -102.5 110.757812 -104.296875 98.3125 -104.296875 C 86.039062 -104.296875 75.28125 -102.5 66.03125 -98.90625 C 56.78125 -95.320312 49.601562 -90.257812 44.5 -83.71875 C 39.394531 -77.1875 36.84375 -69.535156 36.84375 -60.765625 C 36.84375 -51.992188 39.394531 -44.335938 44.5 -37.796875 C 49.601562 -31.253906 56.78125 -26.1875 66.03125 -22.59375 C 75.28125 -19.007812 86.039062 -17.21875 98.3125 -17.21875 Z M 98.3125 -17.21875 "/></g></g></g><g fill="#000000" fill-opacity="1"><g transform="translate(1375.186649, 297.505796)"><g/></g></g></g></g></g></g></g></g></mask><clipPath id="7f7f460e8e"><path d="M 0.257812 0 L 1473.242188 0 L 1473.242188 480.5 L 0.257812 480.5 Z M 0.257812 0 " clip-rule="nonzero"/></clipPath><clipPath id="d5c8390c6a"><rect x="0" width="1474" y="0" height="481"/></clipPath><clipPath id="6fba026d8e"><rect x="0" width="1474" y="0" height="481"/></clipPath><clipPath id="be240c9fef"><rect x="0" width="1474" y="0" height="481"/></clipPath><clipPath id="7c9eba76aa"><path d="M 0.257812 0 L 1473.242188 0 L 1473.242188 480.5 L 0.257812 480.5 Z M 0.257812 0 " clip-rule="nonzero"/></clipPath><clipPath id="fb688422a1"><path d="M 0.257812 0 L 1473.242188 0 L 1473.242188 480.5 L 0.257812 480.5 Z M 0.257812 0 " clip-rule="nonzero"/></clipPath><clipPath id="e2f7030ccf"><path d="M 0.257812 0 L 1473.242188 0 L 1473.242188 480.5 L 0.257812 480.5 Z M 0.257812 0 " clip-rule="nonzero"/></clipPath><clipPath id="29509234f6"><rect x="0" width="1474" y="0" height="481"/></clipPath><clipPath id="16f1e53318"><path d="M 0.257812 0 L 1473.242188 0 L 1473.242188 480.5 L 0.257812 480.5 Z M 0.257812 0 " clip-rule="nonzero"/></clipPath><clipPath id="5325e8191f"><rect x="0" width="1474" y="0" height="481"/></clipPath><clipPath id="f155eba0c2"><rect x="0" width="1474" y="0" height="481"/></clipPath><mask id="cda18d87de"><g filter="url(#b372485f39)"><g transform="matrix(1, 0, 0, 1, 0, 0)"><g clip-path="url(#f155eba0c2)"><g clip-path="url(#16f1e53318)"><g transform="matrix(1, 0, 0, 1, 0, 0)"><g clip-path="url(#5325e8191f)"><g fill="#000000" fill-opacity="1"><g transform="translate(97.991227, 297.505796)"><g><path d="M 75.359375 4.3125 C 54.617188 4.3125 38.226562 -0.945312 26.1875 -11.46875 C 14.15625 -22 8.140625 -36.515625 8.140625 -55.015625 L 8.140625 -121.765625 L 38.515625 -121.765625 L 38.515625 -58.375 C 38.515625 -45.457031 42.660156 -35.367188 50.953125 -28.109375 C 59.242188 -20.847656 70.882812 -17.21875 85.875 -17.21875 C 104.0625 -17.21875 118.296875 -21.765625 128.578125 -30.859375 C 138.867188 -39.953125 144.015625 -52.550781 144.015625 -68.65625 L 144.015625 -121.765625 L 174.15625 -121.765625 L 174.15625 0 L 147.59375 0 L 144.25 -29.90625 L 144.015625 -29.90625 C 138.585938 -19.21875 129.8125 -10.84375 117.6875 -4.78125 C 105.570312 1.28125 91.460938 4.3125 75.359375 4.3125 Z M 75.359375 4.3125 "/></g></g></g><g fill="#000000" fill-opacity="1"><g transform="translate(281.705779, 297.505796)"><g><path d="M 108.359375 -126.0625 C 129.253906 -126.0625 145.679688 -120.796875 157.640625 -110.265625 C 169.609375 -99.742188 175.59375 -85.234375 175.59375 -66.734375 L 175.59375 0 L 145.203125 0 L 145.203125 -63.390625 C 145.203125 -76.304688 141.054688 -86.390625 132.765625 -93.640625 C 124.472656 -100.898438 112.832031 -104.53125 97.84375 -104.53125 C 79.65625 -104.53125 65.414062 -99.984375 55.125 -90.890625 C 44.84375 -81.804688 39.703125 -69.210938 39.703125 -53.109375 L 39.703125 0 L 9.5625 0 L 9.5625 -121.765625 L 36.125 -121.765625 L 39.46875 -91.859375 L 39.703125 -91.859375 C 45.285156 -102.546875 54.097656 -110.914062 66.140625 -116.96875 C 78.179688 -123.03125 92.253906 -126.0625 108.359375 -126.0625 Z M 108.359375 -126.0625 "/></g></g></g><g fill="#000000" fill-opacity="1"><g transform="translate(465.420331, 297.505796)"><g><path d="M 26.796875 -141.859375 C 21.210938 -141.859375 16.664062 -143.492188 13.15625 -146.765625 C 9.644531 -150.035156 7.890625 -154.300781 7.890625 -159.5625 C 7.890625 -164.820312 9.644531 -169.085938 13.15625 -172.359375 C 16.664062 -175.628906 21.210938 -177.265625 26.796875 -177.265625 C 32.535156 -177.265625 37.195312 -175.628906 40.78125 -172.359375 C 44.375 -169.085938 46.171875 -164.820312 46.171875 -159.5625 C 46.171875 -154.300781 44.375 -150.035156 40.78125 -146.765625 C 37.195312 -143.492188 32.535156 -141.859375 26.796875 -141.859375 Z M 11.71875 0 L 11.71875 -121.765625 L 42.109375 -121.765625 L 42.109375 0 Z M 11.71875 0 "/></g></g></g><g fill="#000000" fill-opacity="1"><g transform="translate(519.482149, 297.505796)"><g><path d="M 41.390625 0 L 41.390625 -100.46875 L 0.484375 -100.46875 L 0.484375 -121.765625 L 41.390625 -121.765625 L 41.390625 -130.140625 C 41.390625 -146.085938 46.609375 -158.445312 57.046875 -167.21875 C 67.492188 -175.988281 82.128906 -180.375 100.953125 -180.375 C 112.585938 -180.375 123.03125 -178.300781 132.28125 -174.15625 C 141.53125 -170.007812 148.628906 -164.1875 153.578125 -156.6875 L 139.46875 -141.140625 C 135.957031 -146.398438 131.09375 -150.460938 124.875 -153.328125 C 118.65625 -156.203125 111.796875 -157.640625 104.296875 -157.640625 C 94.085938 -157.640625 86.113281 -155.007812 80.375 -149.75 C 74.632812 -144.488281 71.765625 -137.070312 71.765625 -127.5 L 71.765625 -121.765625 L 146.640625 -121.765625 L 146.640625 -100.46875 L 71.765625 -100.46875 L 71.765625 0 Z M 41.390625 0 "/></g></g></g><g fill="#000000" fill-opacity="1"><g transform="translate(659.420392, 297.505796)"><g><path d="M 102.625 4.546875 C 83.96875 4.546875 67.421875 1.71875 52.984375 -3.9375 C 38.554688 -9.601562 27.234375 -17.421875 19.015625 -27.390625 C 10.804688 -37.359375 6.703125 -48.800781 6.703125 -61.71875 C 6.703125 -74.3125 10.488281 -85.429688 18.0625 -95.078125 C 25.632812 -104.734375 36.078125 -112.3125 49.390625 -117.8125 C 62.710938 -123.3125 77.984375 -126.0625 95.203125 -126.0625 C 112.109375 -126.0625 127.0625 -123.3125 140.0625 -117.8125 C 153.0625 -112.3125 163.226562 -104.734375 170.5625 -95.078125 C 177.894531 -85.429688 181.5625 -74.234375 181.5625 -61.484375 C 181.5625 -60.203125 181.484375 -58.5625 181.328125 -56.5625 C 181.171875 -54.570312 180.929688 -52.863281 180.609375 -51.4375 L 39.703125 -51.4375 C 41.140625 -44.570312 44.96875 -38.628906 51.1875 -33.609375 C 57.40625 -28.585938 65.21875 -24.679688 74.625 -21.890625 C 84.039062 -19.097656 94.25 -17.703125 105.25 -17.703125 C 114.820312 -17.703125 124.070312 -18.617188 133 -20.453125 C 141.9375 -22.285156 150.070312 -24.753906 157.40625 -27.859375 C 164.738281 -30.972656 170.5625 -34.523438 174.875 -38.515625 L 187.0625 -21.296875 C 181.488281 -16.347656 174.273438 -11.921875 165.421875 -8.015625 C 156.566406 -4.109375 146.753906 -1.039062 135.984375 1.1875 C 125.222656 3.425781 114.101562 4.546875 102.625 4.546875 Z M 39 -70.09375 L 150.234375 -70.09375 C 149.585938 -77.101562 146.710938 -83.203125 141.609375 -88.390625 C 136.515625 -93.578125 129.859375 -97.5625 121.640625 -100.34375 C 113.429688 -103.132812 104.300781 -104.53125 94.25 -104.53125 C 84.519531 -104.53125 75.585938 -103.054688 67.453125 -100.109375 C 59.328125 -97.160156 52.75 -93.09375 47.71875 -87.90625 C 42.695312 -82.726562 39.789062 -76.789062 39 -70.09375 Z M 39 -70.09375 "/></g></g></g><g fill="#000000" fill-opacity="1"><g transform="translate(853.899491, 297.505796)"><g><path d="M 93.78125 4.546875 C 80.375 4.546875 67.648438 3.03125 55.609375 0 C 43.578125 -3.03125 33.175781 -7.21875 24.40625 -12.5625 C 15.632812 -17.90625 9.175781 -24.003906 5.03125 -30.859375 L 20.09375 -45.453125 C 23.445312 -39.867188 28.671875 -34.84375 35.765625 -30.375 C 42.859375 -25.914062 51.304688 -22.445312 61.109375 -19.96875 C 70.921875 -17.5 81.332031 -16.265625 92.34375 -16.265625 C 106.53125 -16.265625 117.929688 -17.898438 126.546875 -21.171875 C 135.160156 -24.441406 139.46875 -28.785156 139.46875 -34.203125 C 139.46875 -38.828125 136.4375 -42.335938 130.375 -44.734375 C 124.3125 -47.128906 115.859375 -48.882812 105.015625 -50 L 71.765625 -52.875 C 60.765625 -53.988281 51.113281 -55.78125 42.8125 -58.25 C 34.519531 -60.71875 28.101562 -64.222656 23.5625 -68.765625 C 19.019531 -73.316406 16.75 -79.257812 16.75 -86.59375 C 16.75 -95.207031 19.695312 -102.425781 25.59375 -108.25 C 31.5 -114.070312 39.671875 -118.492188 50.109375 -121.515625 C 60.554688 -124.546875 72.398438 -126.0625 85.640625 -126.0625 C 95.367188 -126.0625 104.695312 -124.984375 113.625 -122.828125 C 122.5625 -120.679688 130.65625 -117.691406 137.90625 -113.859375 C 145.164062 -110.035156 151.023438 -105.570312 155.484375 -100.46875 L 141.859375 -85.40625 C 136.597656 -91.457031 128.78125 -96.476562 118.40625 -100.46875 C 108.039062 -104.457031 96.957031 -106.453125 85.15625 -106.453125 C 73.519531 -106.453125 63.789062 -104.9375 55.96875 -101.90625 C 48.15625 -98.875 44.25 -94.804688 44.25 -89.703125 C 44.25 -85.242188 46.878906 -81.976562 52.140625 -79.90625 C 57.410156 -77.832031 65.148438 -76.316406 75.359375 -75.359375 L 109.5625 -72 C 121.039062 -70.882812 131.125 -69.09375 139.8125 -66.625 C 148.507812 -64.15625 155.25 -60.523438 160.03125 -55.734375 C 164.820312 -50.953125 167.21875 -44.492188 167.21875 -36.359375 C 167.21875 -27.585938 164.023438 -20.128906 157.640625 -13.984375 C 151.265625 -7.847656 142.535156 -3.222656 131.453125 -0.109375 C 120.367188 2.992188 107.8125 4.546875 93.78125 4.546875 Z M 93.78125 4.546875 "/></g></g></g><g fill="#000000" fill-opacity="1"><g transform="translate(1019.911989, 297.505796)"><g><path d="M 95.921875 4.546875 C 78.546875 4.546875 65.113281 0.441406 55.625 -7.765625 C 46.132812 -15.984375 41.390625 -27.585938 41.390625 -42.578125 L 41.390625 -100.46875 L 0.484375 -100.46875 L 0.484375 -121.765625 L 41.140625 -121.765625 L 41.140625 -158.125 L 71.765625 -164.34375 L 71.765625 -121.765625 L 149.515625 -121.765625 L 149.515625 -100.46875 L 71.765625 -100.46875 L 71.765625 -47.359375 C 71.609375 -37.953125 74.039062 -30.738281 79.0625 -25.71875 C 84.082031 -20.695312 91.457031 -18.1875 101.1875 -18.1875 C 109.800781 -18.1875 117.492188 -20.378906 124.265625 -24.765625 C 131.046875 -29.148438 136.429688 -35.007812 140.421875 -42.34375 L 154.78125 -27.03125 C 149.195312 -17.144531 141.300781 -9.410156 131.09375 -3.828125 C 120.882812 1.753906 109.160156 4.546875 95.921875 4.546875 Z M 95.921875 4.546875 "/></g></g></g><g fill="#000000" fill-opacity="1"><g transform="translate(1178.270182, 297.505796)"><g><path d="M 98.3125 4.546875 C 79.8125 4.546875 63.703125 1.835938 49.984375 -3.578125 C 36.273438 -9.003906 25.632812 -16.617188 18.0625 -26.421875 C 10.488281 -36.234375 6.703125 -47.679688 6.703125 -60.765625 C 6.703125 -73.992188 10.488281 -85.472656 18.0625 -95.203125 C 25.632812 -104.929688 36.273438 -112.503906 49.984375 -117.921875 C 63.703125 -123.347656 79.8125 -126.0625 98.3125 -126.0625 C 116.976562 -126.0625 133.164062 -123.347656 146.875 -117.921875 C 160.59375 -112.503906 171.238281 -104.929688 178.8125 -95.203125 C 186.382812 -85.472656 190.171875 -73.992188 190.171875 -60.765625 C 190.171875 -47.679688 186.382812 -36.234375 178.8125 -26.421875 C 171.238281 -16.617188 160.59375 -9.003906 146.875 -3.578125 C 133.164062 1.835938 116.976562 4.546875 98.3125 4.546875 Z M 98.3125 -17.21875 C 110.757812 -17.21875 121.566406 -19.007812 130.734375 -22.59375 C 139.898438 -26.1875 147.035156 -31.253906 152.140625 -37.796875 C 157.242188 -44.335938 159.796875 -51.992188 159.796875 -60.765625 C 159.796875 -69.535156 157.242188 -77.1875 152.140625 -83.71875 C 147.035156 -90.257812 139.898438 -95.320312 130.734375 -98.90625 C 121.566406 -102.5 110.757812 -104.296875 98.3125 -104.296875 C 86.039062 -104.296875 75.28125 -102.5 66.03125 -98.90625 C 56.78125 -95.320312 49.601562 -90.257812 44.5 -83.71875 C 39.394531 -77.1875 36.84375 -69.535156 36.84375 -60.765625 C 36.84375 -51.992188 39.394531 -44.335938 44.5 -37.796875 C 49.601562 -31.253906 56.78125 -26.1875 66.03125 -22.59375 C 75.28125 -19.007812 86.039062 -17.21875 98.3125 -17.21875 Z M 98.3125 -17.21875 "/></g></g></g><g fill="#000000" fill-opacity="1"><g transform="translate(1375.186649, 297.505796)"><g/></g></g></g></g></g></g></g></g></mask><clipPath id="9d5f7d7065"><path d="M 0.257812 0 L 1473.242188 0 L 1473.242188 480.5 L 0.257812 480.5 Z M 0.257812 0 " clip-rule="nonzero"/></clipPath><clipPath id="9c01e8de85"><rect x="0" width="1474" y="0" height="481"/></clipPath><clipPath id="d3e93993ed"><rect x="0" width="1474" y="0" height="481"/></clipPath><clipPath id="011cdf7b71"><rect x="0" width="1474" y="0" height="481"/></clipPath></defs><g clip-path="url(#e3321b3d85)"><g transform="matrix(1, 0, 0, 1, 0, 0)"><g clip-path="url(#be240c9fef)"><g clip-path="url(#97cb740925)"><g transform="matrix(1, 0, 0, 1, 0, 0)"><g clip-path="url(#6fba026d8e)"><g clip-path="url(#1a4614ca1d)"><g mask="url(#4a2032a17a)"><g transform="matrix(1, 0, 0, 1, 0, 0)"><g clip-path="url(#d5c8390c6a)"><g clip-path="url(#7f7f460e8e)"><path fill="url(#3a793e1bcc)" d="M 0.257812 0 L 0.257812 480.5 L 1473.242188 480.5 L 1473.242188 0 Z M 0.257812 0 " fill-rule="nonzero"/></g></g></g></g></g></g></g></g></g></g><g transform="matrix(1, 0, 0, 1, 0, 0)"><g clip-path="url(#011cdf7b71)"><g clip-path="url(#7c9eba76aa)"><g transform="matrix(1, 0, 0, 1, 0, 0)"><g clip-path="url(#d3e93993ed)"><g clip-path="url(#fb688422a1)"><g mask="url(#cda18d87de)"><g transform="matrix(1, 0, 0, 1, 0, 0)"><g clip-path="url(#9c01e8de85)"><g clip-path="url(#9d5f7d7065)"><path fill="url(#3a793e1bcc)" d="M 0.257812 0 L 0.257812 480.5 L 1473.242188 480.5 L 1473.242188 0 Z M 0.257812 0 " fill-rule="nonzero"/></g></g></g></g></g></g></g></g></g></g></g></svg>