<svg xmlns="http://www.w3.org/2000/svg" xmlns:xlink="http://www.w3.org/1999/xlink" width="1920" zoomAndPan="magnify" viewBox="0 0 1440 809.999993" height="1080" preserveAspectRatio="xMidYMid meet" version="1.0"><defs><filter x="0%" y="0%" width="100%" height="100%" id="f6add36e4c"><feColorMatrix values="0 0 0 0 1 0 0 0 0 1 0 0 0 0 1 0 0 0 1 0" color-interpolation-filters="sRGB"/></filter><g/><clipPath id="9d42288a5f"><path d="M 0.121094 1 L 0.601562 1 L 0.601562 2 L 0.121094 2 Z M 0.121094 1 " clip-rule="nonzero"/></clipPath><clipPath id="9f3406c023"><rect x="0" width="1" y="0" height="3"/></clipPath><clipPath id="9fcc7cb11f"><path d="M 0 0 L 1440 0 L 1440 810 L 0 810 Z M 0 0 " clip-rule="nonzero"/></clipPath><linearGradient x1="-117.901459" gradientTransform="matrix(1.646727, 0, 0, 1.646874, 359.250691, -336.205276)" y1="103.888471" x2="565.250364" gradientUnits="userSpaceOnUse" y2="787.039449" id="39facef357"><stop stop-opacity="1" stop-color="rgb(18.963623%, 55.570984%, 100%)" offset="0"/><stop stop-opacity="1" stop-color="rgb(18.829346%, 55.448914%, 100%)" offset="0.015625"/><stop stop-opacity="1" stop-color="rgb(18.559265%, 55.204773%, 100%)" offset="0.03125"/><stop stop-opacity="1" stop-color="rgb(18.29071%, 54.962158%, 100%)" offset="0.046875"/><stop stop-opacity="1" stop-color="rgb(18.02063%, 54.718018%, 100%)" offset="0.0625"/><stop stop-opacity="1" stop-color="rgb(17.752075%, 54.475403%, 100%)" offset="0.078125"/><stop stop-opacity="1" stop-color="rgb(17.481995%, 54.231262%, 100%)" offset="0.09375"/><stop stop-opacity="1" stop-color="rgb(17.21344%, 53.988647%, 100%)" offset="0.109375"/><stop stop-opacity="1" stop-color="rgb(16.943359%, 53.744507%, 100%)" offset="0.125"/><stop stop-opacity="1" stop-color="rgb(16.674805%, 53.501892%, 100%)" offset="0.140625"/><stop stop-opacity="1" stop-color="rgb(16.404724%, 53.257751%, 100%)" offset="0.15625"/><stop stop-opacity="1" stop-color="rgb(16.136169%, 53.015137%, 100%)" offset="0.171875"/><stop stop-opacity="1" stop-color="rgb(15.866089%, 52.770996%, 100%)" offset="0.1875"/><stop stop-opacity="1" stop-color="rgb(15.597534%, 52.528381%, 100%)" offset="0.203125"/><stop stop-opacity="1" stop-color="rgb(15.327454%, 52.284241%, 100%)" offset="0.21875"/><stop stop-opacity="1" stop-color="rgb(15.058899%, 52.041626%, 100%)" offset="0.234375"/><stop stop-opacity="1" stop-color="rgb(14.788818%, 51.797485%, 100%)" offset="0.25"/><stop stop-opacity="1" stop-color="rgb(14.520264%, 51.554871%, 100%)" offset="0.265625"/><stop stop-opacity="1" stop-color="rgb(14.250183%, 51.31073%, 100%)" offset="0.28125"/><stop stop-opacity="1" stop-color="rgb(13.981628%, 51.068115%, 100%)" offset="0.296875"/><stop stop-opacity="1" stop-color="rgb(13.713074%, 50.823975%, 100%)" offset="0.3125"/><stop stop-opacity="1" stop-color="rgb(13.442993%, 50.58136%, 100%)" offset="0.328125"/><stop stop-opacity="1" stop-color="rgb(13.174438%, 50.337219%, 100%)" offset="0.34375"/><stop stop-opacity="1" stop-color="rgb(12.904358%, 50.094604%, 100%)" offset="0.359375"/><stop stop-opacity="1" stop-color="rgb(12.635803%, 49.850464%, 100%)" offset="0.359979"/><stop stop-opacity="1" stop-color="rgb(12.501526%, 49.729919%, 100%)" offset="0.375"/><stop stop-opacity="1" stop-color="rgb(12.365723%, 49.607849%, 100%)" offset="0.390625"/><stop stop-opacity="1" stop-color="rgb(12.097168%, 49.363708%, 100%)" offset="0.40625"/><stop stop-opacity="1" stop-color="rgb(11.827087%, 49.119568%, 100%)" offset="0.421875"/><stop stop-opacity="1" stop-color="rgb(11.558533%, 48.876953%, 100%)" offset="0.4375"/><stop stop-opacity="1" stop-color="rgb(11.288452%, 48.632812%, 100%)" offset="0.453125"/><stop stop-opacity="1" stop-color="rgb(11.019897%, 48.390198%, 100%)" offset="0.46875"/><stop stop-opacity="1" stop-color="rgb(10.749817%, 48.146057%, 100%)" offset="0.484375"/><stop stop-opacity="1" stop-color="rgb(10.481262%, 47.903442%, 100%)" offset="0.5"/><stop stop-opacity="1" stop-color="rgb(10.211182%, 47.659302%, 100%)" offset="0.515625"/><stop stop-opacity="1" stop-color="rgb(9.942627%, 47.416687%, 100%)" offset="0.53125"/><stop stop-opacity="1" stop-color="rgb(9.672546%, 47.172546%, 100%)" offset="0.546875"/><stop stop-opacity="1" stop-color="rgb(9.403992%, 46.929932%, 100%)" offset="0.5625"/><stop stop-opacity="1" stop-color="rgb(9.133911%, 46.685791%, 100%)" offset="0.578125"/><stop stop-opacity="1" stop-color="rgb(8.865356%, 46.443176%, 100%)" offset="0.59375"/><stop stop-opacity="1" stop-color="rgb(8.595276%, 46.199036%, 100%)" offset="0.609375"/><stop stop-opacity="1" stop-color="rgb(8.326721%, 45.956421%, 100%)" offset="0.625"/><stop stop-opacity="1" stop-color="rgb(8.056641%, 45.71228%, 100%)" offset="0.640021"/><stop stop-opacity="1" stop-color="rgb(7.922363%, 45.591736%, 100%)" offset="0.640625"/><stop stop-opacity="1" stop-color="rgb(7.788086%, 45.469666%, 100%)" offset="0.65625"/><stop stop-opacity="1" stop-color="rgb(7.518005%, 45.225525%, 100%)" offset="0.671875"/><stop stop-opacity="1" stop-color="rgb(7.249451%, 44.98291%, 100%)" offset="0.6875"/><stop stop-opacity="1" stop-color="rgb(6.97937%, 44.73877%, 100%)" offset="0.703125"/><stop stop-opacity="1" stop-color="rgb(6.710815%, 44.496155%, 100%)" offset="0.71875"/><stop stop-opacity="1" stop-color="rgb(6.440735%, 44.252014%, 100%)" offset="0.734375"/><stop stop-opacity="1" stop-color="rgb(6.17218%, 44.009399%, 100%)" offset="0.75"/><stop stop-opacity="1" stop-color="rgb(5.9021%, 43.765259%, 100%)" offset="0.765625"/><stop stop-opacity="1" stop-color="rgb(5.633545%, 43.521118%, 100%)" offset="0.78125"/><stop stop-opacity="1" stop-color="rgb(5.363464%, 43.278503%, 100%)" offset="0.796875"/><stop stop-opacity="1" stop-color="rgb(5.09491%, 43.034363%, 100%)" offset="0.8125"/><stop stop-opacity="1" stop-color="rgb(4.824829%, 42.791748%, 100%)" offset="0.828125"/><stop stop-opacity="1" stop-color="rgb(4.556274%, 42.547607%, 100%)" offset="0.84375"/><stop stop-opacity="1" stop-color="rgb(4.28772%, 42.304993%, 100%)" offset="0.859375"/><stop stop-opacity="1" stop-color="rgb(4.017639%, 42.060852%, 100%)" offset="0.875"/><stop stop-opacity="1" stop-color="rgb(3.749084%, 41.818237%, 100%)" offset="0.890625"/><stop stop-opacity="1" stop-color="rgb(3.479004%, 41.574097%, 100%)" offset="0.90625"/><stop stop-opacity="1" stop-color="rgb(3.210449%, 41.331482%, 100%)" offset="0.921875"/><stop stop-opacity="1" stop-color="rgb(2.940369%, 41.087341%, 100%)" offset="0.9375"/><stop stop-opacity="1" stop-color="rgb(2.671814%, 40.844727%, 100%)" offset="0.953125"/><stop stop-opacity="1" stop-color="rgb(2.401733%, 40.600586%, 100%)" offset="0.96875"/><stop stop-opacity="1" stop-color="rgb(2.133179%, 40.357971%, 100%)" offset="0.984375"/><stop stop-opacity="1" stop-color="rgb(1.863098%, 40.113831%, 100%)" offset="1"/></linearGradient><clipPath id="2382596f3b"><rect x="0" width="1440" y="0" height="810"/></clipPath><clipPath id="542294a697"><rect x="0" width="1440" y="0" height="810"/></clipPath><clipPath id="f694985d23"><rect x="0" width="1440" y="0" height="810"/></clipPath><mask id="555567c445"><g filter="url(#f6add36e4c)"><g transform="matrix(1, 0, 0, 1, 0, 0.000000000000039746)"><g clip-path="url(#f694985d23)"><g transform="matrix(1, 0, 0, 1, 0, 0.000000000000039746)"><g clip-path="url(#542294a697)"><g fill="#000000" fill-opacity="1"><g transform="translate(359.600321, 763.866564)"><g><path d="M 881.5625 -400.578125 C 888.507812 -408.523438 894.710938 -410.757812 900.171875 -407.28125 C 905.640625 -403.8125 904.898438 -396.117188 897.953125 -384.203125 C 883.054688 -362.359375 841.601562 -308.003906 773.59375 -221.140625 C 705.59375 -134.273438 643.300781 -69.5 586.71875 -26.8125 C 542.039062 0 498.851562 5.960938 457.15625 -8.921875 C 415.46875 -23.816406 386.429688 -52.609375 370.046875 -95.296875 C 353.671875 -137.992188 360.375 -187.140625 390.15625 -242.734375 C 431.851562 -314.210938 488.929688 -410.007812 561.390625 -530.125 C 593.160156 -589.6875 594.648438 -629.144531 565.859375 -648.5 C 537.066406 -667.863281 493.390625 -650.242188 434.828125 -595.640625 C 330.585938 -482.484375 248.6875 -386.6875 189.125 -308.25 L 10.421875 -1.484375 L -148.921875 -1.484375 L 250.171875 -689.46875 L 411 -689.46875 L 276.984375 -460.15625 C 357.398438 -558.425781 427.390625 -628.90625 486.953125 -671.59375 C 521.691406 -690.457031 559.90625 -694.675781 601.59375 -684.25 C 643.289062 -673.820312 674.066406 -649.992188 693.921875 -612.765625 C 713.785156 -575.535156 708.328125 -526.148438 677.546875 -464.609375 C 619.960938 -363.347656 559.410156 -261.09375 495.890625 -157.84375 C 479.015625 -128.0625 472.5625 -100.265625 476.53125 -74.453125 C 480.5 -48.640625 494.640625 -35.238281 518.953125 -34.25 C 543.273438 -33.257812 577.28125 -53.613281 620.96875 -95.3125 C 663.65625 -138.988281 703.859375 -182.914062 741.578125 -227.09375 C 779.304688 -271.269531 810.578125 -309.488281 835.390625 -341.75 C 860.210938 -374.019531 875.601562 -393.628906 881.5625 -400.578125 Z M 881.5625 -400.578125 "/></g></g></g><g fill="#000000" fill-opacity="1"><g transform="translate(1116.112827, 763.866564)"><g/></g></g></g></g></g></g></g></mask><clipPath id="d41adfb11f"><path d="M 0 0 L 1440 0 L 1440 810 L 0 810 Z M 0 0 " clip-rule="nonzero"/></clipPath><clipPath id="9747937e9e"><rect x="0" width="1440" y="0" height="810"/></clipPath><clipPath id="bea542a2fb"><rect x="0" width="1440" y="0" height="810"/></clipPath><clipPath id="7429e52528"><path d="M 0 0 L 1440 0 L 1440 810 L 0 810 Z M 0 0 " clip-rule="nonzero"/></clipPath><linearGradient x1="-101.995569" gradientTransform="matrix(1.646451, 0, 0, 1.646874, 323.034835, -334.558557)" y1="108.942344" x2="581.229718" gradientUnits="userSpaceOnUse" y2="792.16682" id="b66d02be69"><stop stop-opacity="1" stop-color="rgb(18.722534%, 55.352783%, 100%)" offset="0"/><stop stop-opacity="1" stop-color="rgb(18.588257%, 55.232239%, 100%)" offset="0.015625"/><stop stop-opacity="1" stop-color="rgb(18.322754%, 54.99115%, 100%)" offset="0.03125"/><stop stop-opacity="1" stop-color="rgb(18.057251%, 54.751587%, 100%)" offset="0.046875"/><stop stop-opacity="1" stop-color="rgb(17.791748%, 54.510498%, 100%)" offset="0.0625"/><stop stop-opacity="1" stop-color="rgb(17.526245%, 54.270935%, 100%)" offset="0.078125"/><stop stop-opacity="1" stop-color="rgb(17.260742%, 54.031372%, 100%)" offset="0.09375"/><stop stop-opacity="1" stop-color="rgb(16.993713%, 53.790283%, 100%)" offset="0.109375"/><stop stop-opacity="1" stop-color="rgb(16.72821%, 53.55072%, 100%)" offset="0.125"/><stop stop-opacity="1" stop-color="rgb(16.462708%, 53.309631%, 100%)" offset="0.140625"/><stop stop-opacity="1" stop-color="rgb(16.197205%, 53.070068%, 100%)" offset="0.15625"/><stop stop-opacity="1" stop-color="rgb(15.931702%, 52.828979%, 100%)" offset="0.171875"/><stop stop-opacity="1" stop-color="rgb(15.666199%, 52.589417%, 100%)" offset="0.1875"/><stop stop-opacity="1" stop-color="rgb(15.39917%, 52.349854%, 100%)" offset="0.203125"/><stop stop-opacity="1" stop-color="rgb(15.133667%, 52.108765%, 100%)" offset="0.21875"/><stop stop-opacity="1" stop-color="rgb(14.868164%, 51.869202%, 100%)" offset="0.234375"/><stop stop-opacity="1" stop-color="rgb(14.602661%, 51.628113%, 100%)" offset="0.25"/><stop stop-opacity="1" stop-color="rgb(14.337158%, 51.38855%, 100%)" offset="0.265625"/><stop stop-opacity="1" stop-color="rgb(14.071655%, 51.147461%, 100%)" offset="0.28125"/><stop stop-opacity="1" stop-color="rgb(13.804626%, 50.907898%, 100%)" offset="0.296875"/><stop stop-opacity="1" stop-color="rgb(13.539124%, 50.668335%, 100%)" offset="0.3125"/><stop stop-opacity="1" stop-color="rgb(13.273621%, 50.427246%, 100%)" offset="0.328125"/><stop stop-opacity="1" stop-color="rgb(13.008118%, 50.187683%, 100%)" offset="0.34375"/><stop stop-opacity="1" stop-color="rgb(12.742615%, 49.946594%, 100%)" offset="0.359375"/><stop stop-opacity="1" stop-color="rgb(12.477112%, 49.707031%, 100%)" offset="0.35994"/><stop stop-opacity="1" stop-color="rgb(12.34436%, 49.586487%, 100%)" offset="0.375"/><stop stop-opacity="1" stop-color="rgb(12.210083%, 49.465942%, 100%)" offset="0.390625"/><stop stop-opacity="1" stop-color="rgb(11.94458%, 49.226379%, 100%)" offset="0.40625"/><stop stop-opacity="1" stop-color="rgb(11.679077%, 48.986816%, 100%)" offset="0.421875"/><stop stop-opacity="1" stop-color="rgb(11.413574%, 48.745728%, 100%)" offset="0.4375"/><stop stop-opacity="1" stop-color="rgb(11.148071%, 48.506165%, 100%)" offset="0.453125"/><stop stop-opacity="1" stop-color="rgb(10.882568%, 48.265076%, 100%)" offset="0.46875"/><stop stop-opacity="1" stop-color="rgb(10.61554%, 48.025513%, 100%)" offset="0.484375"/><stop stop-opacity="1" stop-color="rgb(10.350037%, 47.784424%, 100%)" offset="0.5"/><stop stop-opacity="1" stop-color="rgb(10.084534%, 47.544861%, 100%)" offset="0.515625"/><stop stop-opacity="1" stop-color="rgb(9.819031%, 47.305298%, 100%)" offset="0.53125"/><stop stop-opacity="1" stop-color="rgb(9.553528%, 47.064209%, 100%)" offset="0.546875"/><stop stop-opacity="1" stop-color="rgb(9.288025%, 46.824646%, 100%)" offset="0.5625"/><stop stop-opacity="1" stop-color="rgb(9.020996%, 46.583557%, 100%)" offset="0.578125"/><stop stop-opacity="1" stop-color="rgb(8.755493%, 46.343994%, 100%)" offset="0.59375"/><stop stop-opacity="1" stop-color="rgb(8.48999%, 46.104431%, 100%)" offset="0.609375"/><stop stop-opacity="1" stop-color="rgb(8.224487%, 45.863342%, 100%)" offset="0.625"/><stop stop-opacity="1" stop-color="rgb(7.958984%, 45.623779%, 100%)" offset="0.64006"/><stop stop-opacity="1" stop-color="rgb(7.826233%, 45.503235%, 100%)" offset="0.640625"/><stop stop-opacity="1" stop-color="rgb(7.693481%, 45.38269%, 100%)" offset="0.65625"/><stop stop-opacity="1" stop-color="rgb(7.426453%, 45.143127%, 100%)" offset="0.671875"/><stop stop-opacity="1" stop-color="rgb(7.16095%, 44.902039%, 100%)" offset="0.6875"/><stop stop-opacity="1" stop-color="rgb(6.895447%, 44.662476%, 100%)" offset="0.703125"/><stop stop-opacity="1" stop-color="rgb(6.629944%, 44.422913%, 100%)" offset="0.71875"/><stop stop-opacity="1" stop-color="rgb(6.364441%, 44.181824%, 100%)" offset="0.734375"/><stop stop-opacity="1" stop-color="rgb(6.098938%, 43.942261%, 100%)" offset="0.75"/><stop stop-opacity="1" stop-color="rgb(5.831909%, 43.701172%, 100%)" offset="0.765625"/><stop stop-opacity="1" stop-color="rgb(5.566406%, 43.461609%, 100%)" offset="0.78125"/><stop stop-opacity="1" stop-color="rgb(5.300903%, 43.22052%, 100%)" offset="0.796875"/><stop stop-opacity="1" stop-color="rgb(5.0354%, 42.980957%, 100%)" offset="0.8125"/><stop stop-opacity="1" stop-color="rgb(4.769897%, 42.741394%, 100%)" offset="0.828125"/><stop stop-opacity="1" stop-color="rgb(4.504395%, 42.500305%, 100%)" offset="0.84375"/><stop stop-opacity="1" stop-color="rgb(4.237366%, 42.260742%, 100%)" offset="0.859375"/><stop stop-opacity="1" stop-color="rgb(3.971863%, 42.019653%, 100%)" offset="0.875"/><stop stop-opacity="1" stop-color="rgb(3.70636%, 41.78009%, 100%)" offset="0.890625"/><stop stop-opacity="1" stop-color="rgb(3.440857%, 41.539001%, 100%)" offset="0.90625"/><stop stop-opacity="1" stop-color="rgb(3.175354%, 41.299438%, 100%)" offset="0.921875"/><stop stop-opacity="1" stop-color="rgb(2.909851%, 41.059875%, 100%)" offset="0.9375"/><stop stop-opacity="1" stop-color="rgb(2.644348%, 40.818787%, 100%)" offset="0.953125"/><stop stop-opacity="1" stop-color="rgb(2.377319%, 40.579224%, 100%)" offset="0.96875"/><stop stop-opacity="1" stop-color="rgb(2.111816%, 40.338135%, 100%)" offset="0.984375"/><stop stop-opacity="1" stop-color="rgb(1.846313%, 40.098572%, 100%)" offset="1"/></linearGradient><clipPath id="f7fd7f8611"><rect x="0" width="1440" y="0" height="810"/></clipPath><clipPath id="d9b4458e67"><rect x="0" width="1440" y="0" height="810"/></clipPath><clipPath id="c15556bbd0"><rect x="0" width="1440" y="0" height="810"/></clipPath><mask id="1e6713e825"><g filter="url(#f6add36e4c)"><g transform="matrix(1, 0, 0, 1, 0, 0.000000000000039746)"><g clip-path="url(#c15556bbd0)"><g transform="matrix(1, 0, 0, 1, 0, 0.000000000000039746)"><g clip-path="url(#d9b4458e67)"><g fill="#000000" fill-opacity="1"><g transform="translate(323.885059, 765.513224)"><g><path d="M 917.296875 -402.078125 C 924.253906 -410.015625 930.460938 -412.242188 935.921875 -408.765625 C 941.378906 -405.296875 942.125 -399.585938 938.15625 -391.640625 C 921.28125 -366.828125 872.382812 -304.78125 791.46875 -205.5 C 710.5625 -106.226562 646.773438 -42.195312 600.109375 -13.40625 C 561.390625 2.476562 522.921875 3.222656 484.703125 -11.171875 C 446.492188 -25.566406 419.691406 -52.617188 404.296875 -92.328125 C 388.910156 -132.035156 396.113281 -182.171875 425.90625 -242.734375 C 384.207031 -192.097656 342.507812 -144.191406 300.8125 -99.015625 C 259.113281 -53.847656 226.351562 -25.3125 202.53125 -13.40625 C 163.8125 2.476562 125.09375 2.726562 86.375 -12.65625 C 47.65625 -28.039062 20.847656 -56.332031 5.953125 -97.53125 C -8.929688 -138.738281 0.5 -191.109375 34.25 -254.640625 C 91.832031 -350.941406 179.195312 -496.378906 296.34375 -690.953125 L 457.171875 -690.953125 C 457.171875 -690.953125 351.9375 -517.71875 141.46875 -171.25 C 108.707031 -112.675781 104.984375 -71.226562 130.296875 -46.90625 C 155.617188 -22.582031 197.066406 -36.726562 254.640625 -89.34375 C 373.773438 -220.394531 460.640625 -322.648438 515.234375 -396.109375 C 570.828125 -488.429688 629.894531 -586.710938 692.4375 -690.953125 L 853.265625 -690.953125 C 853.265625 -690.953125 748.03125 -517.71875 537.5625 -171.25 C 504.8125 -112.675781 501.09375 -71.226562 526.40625 -46.90625 C 551.71875 -22.582031 593.660156 -36.726562 652.234375 -89.34375 C 708.816406 -149.90625 761.679688 -210.460938 810.828125 -271.015625 C 859.972656 -331.578125 895.460938 -375.265625 917.296875 -402.078125 Z M 917.296875 -402.078125 "/></g></g></g><g fill="#000000" fill-opacity="1"><g transform="translate(1116.135266, 765.513224)"><g/></g></g></g></g></g></g></g></mask><clipPath id="6873471db8"><path d="M 0 0 L 1440 0 L 1440 810 L 0 810 Z M 0 0 " clip-rule="nonzero"/></clipPath><clipPath id="43f4a03a4b"><rect x="0" width="1440" y="0" height="810"/></clipPath><clipPath id="a5d3027890"><rect x="0" width="1440" y="0" height="810"/></clipPath><clipPath id="300f8c291d"><rect x="0" width="1440" y="0" height="810"/></clipPath></defs><g transform="matrix(1, 0, 0, 1, 15, 0.000000000000039746)"><g clip-path="url(#9f3406c023)"><g clip-path="url(#9d42288a5f)"><g fill="#ffffff" fill-opacity="1"><g transform="translate(0.334546, 1.920565)"><g><path d="M 0.125 0.015625 L 0.046875 -0.03125 L 0.046875 -0.109375 L 0.125 -0.15625 L 0.1875 -0.109375 L 0.1875 -0.03125 Z M 0.125 0.015625 "/></g></g></g></g></g></g><g transform="matrix(1, 0, 0, 1, 0, 0.000000000000039746)"><g clip-path="url(#300f8c291d)"><g transform="matrix(1, 0, 0, 1, 0, 0.000000000000039746)"><g clip-path="url(#bea542a2fb)"><g mask="url(#555567c445)"><g transform="matrix(1, 0, 0, 1, 0, 0.000000000000039746)"><g clip-path="url(#9747937e9e)"><g clip-path="url(#d41adfb11f)"><rect x="-772.992" fill="url(#39facef357)" width="2985.984" height="1679.615985" y="-434.807996"/></g></g></g></g></g></g><g transform="matrix(1, 0, 0, 1, 0, 0.000000000000039746)"><g clip-path="url(#a5d3027890)"><g mask="url(#1e6713e825)"><g transform="matrix(1, 0, 0, 1, 0, 0.000000000000039746)"><g clip-path="url(#43f4a03a4b)"><g clip-path="url(#6873471db8)"><rect x="-772.992" fill="url(#b66d02be69)" width="2985.984" height="1679.615985" y="-434.807996"/></g></g></g></g></g></g></g></g></svg>