<svg xmlns="http://www.w3.org/2000/svg" xmlns:xlink="http://www.w3.org/1999/xlink" width="1516" zoomAndPan="magnify" viewBox="0 0 1137 358.49999" height="478" preserveAspectRatio="xMidYMid meet" version="1.0"><defs><filter x="0%" y="0%" width="100%" height="100%" id="5e42c5694e"><feColorMatrix values="0 0 0 0 1 0 0 0 0 1 0 0 0 0 1 0 0 0 1 0" color-interpolation-filters="sRGB"/></filter><g/><clipPath id="e96d52ebf9"><path d="M 0.792969 0 L 1136.207031 0 L 1136.207031 358 L 0.792969 358 Z M 0.792969 0 " clip-rule="nonzero"/></clipPath><clipPath id="d777bd56c0"><path d="M 0.792969 0 L 1136.207031 0 L 1136.207031 358 L 0.792969 358 Z M 0.792969 0 " clip-rule="nonzero"/></clipPath><clipPath id="41861576e2"><path d="M 0.792969 0 L 1136.207031 0 L 1136.207031 358 L 0.792969 358 Z M 0.792969 0 " clip-rule="nonzero"/></clipPath><clipPath id="eb4965863e"><path d="M 0.792969 0 L 1136.207031 0 L 1136.207031 358 L 0.792969 358 Z M 0.792969 0 " clip-rule="nonzero"/></clipPath><linearGradient x1="57.566015" gradientTransform="matrix(2.128696, 0, 0, 2.131217, 72.859387, 90.320304)" y1="-133.80098" x2="408.248703" gradientUnits="userSpaceOnUse" y2="216.881702" id="2ba60b96a3"><stop stop-opacity="1" stop-color="rgb(20.388794%, 56.858826%, 100%)" offset="0"/><stop stop-opacity="1" stop-color="rgb(20.388794%, 56.858826%, 100%)" offset="0.0625"/><stop stop-opacity="1" stop-color="rgb(20.388794%, 56.858826%, 100%)" offset="0.09375"/><stop stop-opacity="1" stop-color="rgb(20.361328%, 56.834412%, 100%)" offset="0.109375"/><stop stop-opacity="1" stop-color="rgb(20.233154%, 56.718445%, 100%)" offset="0.117188"/><stop stop-opacity="1" stop-color="rgb(20.030212%, 56.533813%, 100%)" offset="0.125"/><stop stop-opacity="1" stop-color="rgb(19.825745%, 56.350708%, 100%)" offset="0.132813"/><stop stop-opacity="1" stop-color="rgb(19.622803%, 56.166077%, 100%)" offset="0.140625"/><stop stop-opacity="1" stop-color="rgb(19.418335%, 55.981445%, 100%)" offset="0.148438"/><stop stop-opacity="1" stop-color="rgb(19.215393%, 55.79834%, 100%)" offset="0.15625"/><stop stop-opacity="1" stop-color="rgb(19.010925%, 55.613708%, 100%)" offset="0.164063"/><stop stop-opacity="1" stop-color="rgb(18.807983%, 55.429077%, 100%)" offset="0.171875"/><stop stop-opacity="1" stop-color="rgb(18.603516%, 55.245972%, 100%)" offset="0.179688"/><stop stop-opacity="1" stop-color="rgb(18.400574%, 55.06134%, 100%)" offset="0.1875"/><stop stop-opacity="1" stop-color="rgb(18.197632%, 54.878235%, 100%)" offset="0.195312"/><stop stop-opacity="1" stop-color="rgb(17.993164%, 54.693604%, 100%)" offset="0.203125"/><stop stop-opacity="1" stop-color="rgb(17.790222%, 54.508972%, 100%)" offset="0.210938"/><stop stop-opacity="1" stop-color="rgb(17.585754%, 54.325867%, 100%)" offset="0.21875"/><stop stop-opacity="1" stop-color="rgb(17.382812%, 54.141235%, 100%)" offset="0.226562"/><stop stop-opacity="1" stop-color="rgb(17.178345%, 53.956604%, 100%)" offset="0.234375"/><stop stop-opacity="1" stop-color="rgb(16.975403%, 53.773499%, 100%)" offset="0.239504"/><stop stop-opacity="1" stop-color="rgb(16.873169%, 53.681946%, 100%)" offset="0.242188"/><stop stop-opacity="1" stop-color="rgb(16.770935%, 53.588867%, 100%)" offset="0.25"/><stop stop-opacity="1" stop-color="rgb(16.567993%, 53.405762%, 100%)" offset="0.257813"/><stop stop-opacity="1" stop-color="rgb(16.365051%, 53.22113%, 100%)" offset="0.265625"/><stop stop-opacity="1" stop-color="rgb(16.160583%, 53.036499%, 100%)" offset="0.273438"/><stop stop-opacity="1" stop-color="rgb(15.957642%, 52.853394%, 100%)" offset="0.28125"/><stop stop-opacity="1" stop-color="rgb(15.753174%, 52.668762%, 100%)" offset="0.289063"/><stop stop-opacity="1" stop-color="rgb(15.550232%, 52.485657%, 100%)" offset="0.296875"/><stop stop-opacity="1" stop-color="rgb(15.345764%, 52.301025%, 100%)" offset="0.304688"/><stop stop-opacity="1" stop-color="rgb(15.142822%, 52.116394%, 100%)" offset="0.3125"/><stop stop-opacity="1" stop-color="rgb(14.938354%, 51.933289%, 100%)" offset="0.320313"/><stop stop-opacity="1" stop-color="rgb(14.735413%, 51.748657%, 100%)" offset="0.328125"/><stop stop-opacity="1" stop-color="rgb(14.530945%, 51.564026%, 100%)" offset="0.335938"/><stop stop-opacity="1" stop-color="rgb(14.328003%, 51.38092%, 100%)" offset="0.34375"/><stop stop-opacity="1" stop-color="rgb(14.125061%, 51.196289%, 100%)" offset="0.351562"/><stop stop-opacity="1" stop-color="rgb(13.920593%, 51.013184%, 100%)" offset="0.359375"/><stop stop-opacity="1" stop-color="rgb(13.717651%, 50.828552%, 100%)" offset="0.367188"/><stop stop-opacity="1" stop-color="rgb(13.513184%, 50.643921%, 100%)" offset="0.375"/><stop stop-opacity="1" stop-color="rgb(13.310242%, 50.460815%, 100%)" offset="0.382812"/><stop stop-opacity="1" stop-color="rgb(13.105774%, 50.276184%, 100%)" offset="0.390625"/><stop stop-opacity="1" stop-color="rgb(12.902832%, 50.091553%, 100%)" offset="0.398438"/><stop stop-opacity="1" stop-color="rgb(12.698364%, 49.908447%, 100%)" offset="0.40625"/><stop stop-opacity="1" stop-color="rgb(12.495422%, 49.723816%, 100%)" offset="0.414063"/><stop stop-opacity="1" stop-color="rgb(12.29248%, 49.54071%, 100%)" offset="0.421875"/><stop stop-opacity="1" stop-color="rgb(12.088013%, 49.356079%, 100%)" offset="0.429688"/><stop stop-opacity="1" stop-color="rgb(11.885071%, 49.171448%, 100%)" offset="0.4375"/><stop stop-opacity="1" stop-color="rgb(11.680603%, 48.988342%, 100%)" offset="0.445313"/><stop stop-opacity="1" stop-color="rgb(11.477661%, 48.803711%, 100%)" offset="0.453125"/><stop stop-opacity="1" stop-color="rgb(11.273193%, 48.61908%, 100%)" offset="0.460938"/><stop stop-opacity="1" stop-color="rgb(11.070251%, 48.435974%, 100%)" offset="0.46875"/><stop stop-opacity="1" stop-color="rgb(10.865784%, 48.251343%, 100%)" offset="0.476563"/><stop stop-opacity="1" stop-color="rgb(10.662842%, 48.068237%, 100%)" offset="0.484375"/><stop stop-opacity="1" stop-color="rgb(10.458374%, 47.883606%, 100%)" offset="0.492188"/><stop stop-opacity="1" stop-color="rgb(10.255432%, 47.698975%, 100%)" offset="0.5"/><stop stop-opacity="1" stop-color="rgb(10.05249%, 47.515869%, 100%)" offset="0.507812"/><stop stop-opacity="1" stop-color="rgb(9.848022%, 47.331238%, 100%)" offset="0.515625"/><stop stop-opacity="1" stop-color="rgb(9.645081%, 47.146606%, 100%)" offset="0.523438"/><stop stop-opacity="1" stop-color="rgb(9.440613%, 46.963501%, 100%)" offset="0.53125"/><stop stop-opacity="1" stop-color="rgb(9.237671%, 46.77887%, 100%)" offset="0.539062"/><stop stop-opacity="1" stop-color="rgb(9.033203%, 46.595764%, 100%)" offset="0.546875"/><stop stop-opacity="1" stop-color="rgb(8.830261%, 46.411133%, 100%)" offset="0.554688"/><stop stop-opacity="1" stop-color="rgb(8.625793%, 46.226501%, 100%)" offset="0.5625"/><stop stop-opacity="1" stop-color="rgb(8.422852%, 46.043396%, 100%)" offset="0.570312"/><stop stop-opacity="1" stop-color="rgb(8.21991%, 45.858765%, 100%)" offset="0.578125"/><stop stop-opacity="1" stop-color="rgb(8.015442%, 45.674133%, 100%)" offset="0.585938"/><stop stop-opacity="1" stop-color="rgb(7.8125%, 45.491028%, 100%)" offset="0.59375"/><stop stop-opacity="1" stop-color="rgb(7.608032%, 45.306396%, 100%)" offset="0.601562"/><stop stop-opacity="1" stop-color="rgb(7.40509%, 45.123291%, 100%)" offset="0.609375"/><stop stop-opacity="1" stop-color="rgb(7.200623%, 44.93866%, 100%)" offset="0.617188"/><stop stop-opacity="1" stop-color="rgb(6.997681%, 44.754028%, 100%)" offset="0.625"/><stop stop-opacity="1" stop-color="rgb(6.793213%, 44.570923%, 100%)" offset="0.632812"/><stop stop-opacity="1" stop-color="rgb(6.590271%, 44.386292%, 100%)" offset="0.640625"/><stop stop-opacity="1" stop-color="rgb(6.385803%, 44.203186%, 100%)" offset="0.648438"/><stop stop-opacity="1" stop-color="rgb(6.182861%, 44.018555%, 100%)" offset="0.65625"/><stop stop-opacity="1" stop-color="rgb(5.979919%, 43.833923%, 100%)" offset="0.664062"/><stop stop-opacity="1" stop-color="rgb(5.775452%, 43.650818%, 100%)" offset="0.671875"/><stop stop-opacity="1" stop-color="rgb(5.57251%, 43.466187%, 100%)" offset="0.679688"/><stop stop-opacity="1" stop-color="rgb(5.368042%, 43.281555%, 100%)" offset="0.6875"/><stop stop-opacity="1" stop-color="rgb(5.1651%, 43.09845%, 100%)" offset="0.695312"/><stop stop-opacity="1" stop-color="rgb(4.960632%, 42.913818%, 100%)" offset="0.703125"/><stop stop-opacity="1" stop-color="rgb(4.75769%, 42.730713%, 100%)" offset="0.710938"/><stop stop-opacity="1" stop-color="rgb(4.553223%, 42.546082%, 100%)" offset="0.71875"/><stop stop-opacity="1" stop-color="rgb(4.350281%, 42.36145%, 100%)" offset="0.726562"/><stop stop-opacity="1" stop-color="rgb(4.147339%, 42.178345%, 100%)" offset="0.734375"/><stop stop-opacity="1" stop-color="rgb(3.942871%, 41.993713%, 100%)" offset="0.742188"/><stop stop-opacity="1" stop-color="rgb(3.739929%, 41.809082%, 100%)" offset="0.75"/><stop stop-opacity="1" stop-color="rgb(3.535461%, 41.625977%, 100%)" offset="0.757812"/><stop stop-opacity="1" stop-color="rgb(3.33252%, 41.441345%, 100%)" offset="0.760496"/><stop stop-opacity="1" stop-color="rgb(3.230286%, 41.349792%, 100%)" offset="0.765625"/><stop stop-opacity="1" stop-color="rgb(3.128052%, 41.25824%, 100%)" offset="0.773438"/><stop stop-opacity="1" stop-color="rgb(2.92511%, 41.073608%, 100%)" offset="0.78125"/><stop stop-opacity="1" stop-color="rgb(2.720642%, 40.888977%, 100%)" offset="0.789062"/><stop stop-opacity="1" stop-color="rgb(2.5177%, 40.705872%, 100%)" offset="0.796875"/><stop stop-opacity="1" stop-color="rgb(2.313232%, 40.52124%, 100%)" offset="0.804688"/><stop stop-opacity="1" stop-color="rgb(2.110291%, 40.336609%, 100%)" offset="0.8125"/><stop stop-opacity="1" stop-color="rgb(1.907349%, 40.153503%, 100%)" offset="0.820312"/><stop stop-opacity="1" stop-color="rgb(1.702881%, 39.968872%, 100%)" offset="0.828125"/><stop stop-opacity="1" stop-color="rgb(1.499939%, 39.785767%, 100%)" offset="0.835938"/><stop stop-opacity="1" stop-color="rgb(1.295471%, 39.601135%, 100%)" offset="0.84375"/><stop stop-opacity="1" stop-color="rgb(1.092529%, 39.416504%, 100%)" offset="0.851562"/><stop stop-opacity="1" stop-color="rgb(0.888062%, 39.233398%, 100%)" offset="0.859375"/><stop stop-opacity="1" stop-color="rgb(0.68512%, 39.048767%, 100%)" offset="0.867188"/><stop stop-opacity="1" stop-color="rgb(0.480652%, 38.864136%, 100%)" offset="0.875"/><stop stop-opacity="1" stop-color="rgb(0.189209%, 38.600159%, 100%)" offset="1"/></linearGradient><clipPath id="79f9641fb6"><rect x="0" width="1137" y="0" height="358"/></clipPath><clipPath id="91c5ebafab"><path d="M 0.792969 0 L 1136.207031 0 L 1136.207031 358 L 0.792969 358 Z M 0.792969 0 " clip-rule="nonzero"/></clipPath><clipPath id="79d55032db"><rect x="0" width="1137" y="0" height="358"/></clipPath><clipPath id="cdee16841c"><rect x="0" width="1137" y="0" height="358"/></clipPath><mask id="11f60a1ed8"><g filter="url(#5e42c5694e)"><g><g clip-path="url(#cdee16841c)"><g clip-path="url(#91c5ebafab)"><g><g clip-path="url(#79d55032db)"><g fill="#000000" fill-opacity="1"><g transform="translate(73.449115, 222.408951)"><g><path d="M 8.890625 0 L 8.890625 -125.984375 L 87.953125 -125.984375 C 111.765625 -125.984375 130.066406 -120.53125 142.859375 -109.625 C 155.648438 -98.726562 162.046875 -83.15625 162.046875 -62.90625 C 162.046875 -42.757812 155.648438 -27.238281 142.859375 -16.34375 C 130.066406 -5.445312 111.765625 0 87.953125 0 Z M 33.234375 -18.65625 L 85.828125 -18.65625 C 102.523438 -18.65625 115.375 -22.472656 124.375 -30.109375 C 133.382812 -37.753906 137.890625 -48.6875 137.890625 -62.90625 C 137.890625 -77.113281 133.382812 -88.007812 124.375 -95.59375 C 115.375 -103.175781 102.523438 -106.96875 85.828125 -106.96875 L 33.234375 -106.96875 Z M 33.234375 -18.65625 "/></g></g></g><g fill="#000000" fill-opacity="1"><g transform="translate(242.238239, 222.408951)"><g><path d="M 19.90625 -105.375 C 15.757812 -105.375 12.378906 -106.585938 9.765625 -109.015625 C 7.160156 -111.441406 5.859375 -114.609375 5.859375 -118.515625 C 5.859375 -122.421875 7.160156 -125.585938 9.765625 -128.015625 C 12.378906 -130.453125 15.757812 -131.671875 19.90625 -131.671875 C 24.164062 -131.671875 27.628906 -130.453125 30.296875 -128.015625 C 32.960938 -125.585938 34.296875 -122.421875 34.296875 -118.515625 C 34.296875 -114.609375 32.960938 -111.441406 30.296875 -109.015625 C 27.628906 -106.585938 24.164062 -105.375 19.90625 -105.375 Z M 8.703125 0 L 8.703125 -90.4375 L 31.265625 -90.4375 L 31.265625 0 Z M 8.703125 0 "/></g></g></g><g fill="#000000" fill-opacity="1"><g transform="translate(282.392287, 222.408951)"><g><path d="M 69.65625 3.375 C 59.707031 3.375 50.257812 2.25 41.3125 0 C 32.363281 -2.25 24.628906 -5.359375 18.109375 -9.328125 C 11.597656 -13.296875 6.804688 -17.828125 3.734375 -22.921875 L 14.921875 -33.765625 C 17.410156 -29.617188 21.289062 -25.882812 26.5625 -22.5625 C 31.832031 -19.25 38.109375 -16.671875 45.390625 -14.828125 C 52.679688 -12.992188 60.414062 -12.078125 68.59375 -12.078125 C 79.132812 -12.078125 87.601562 -13.289062 94 -15.71875 C 100.394531 -18.15625 103.59375 -21.382812 103.59375 -25.40625 C 103.59375 -28.84375 101.34375 -31.445312 96.84375 -33.21875 C 92.34375 -35 86.0625 -36.304688 78 -37.140625 L 53.3125 -39.265625 C 45.132812 -40.097656 37.960938 -41.429688 31.796875 -43.265625 C 25.640625 -45.097656 20.875 -47.703125 17.5 -51.078125 C 14.125 -54.460938 12.4375 -58.878906 12.4375 -64.328125 C 12.4375 -70.722656 14.628906 -76.082031 19.015625 -80.40625 C 23.398438 -84.726562 29.46875 -88.015625 37.21875 -90.265625 C 44.976562 -92.515625 53.773438 -93.640625 63.609375 -93.640625 C 70.835938 -93.640625 77.769531 -92.835938 84.40625 -91.234375 C 91.039062 -89.640625 97.050781 -87.421875 102.4375 -84.578125 C 107.820312 -81.734375 112.175781 -78.414062 115.5 -74.625 L 105.375 -63.4375 C 101.457031 -67.9375 95.648438 -71.664062 87.953125 -74.625 C 80.253906 -77.59375 72.019531 -79.078125 63.25 -79.078125 C 54.601562 -79.078125 47.378906 -77.945312 41.578125 -75.6875 C 35.773438 -73.4375 32.875 -70.414062 32.875 -66.625 C 32.875 -63.3125 34.828125 -60.882812 38.734375 -59.34375 C 42.640625 -57.800781 48.382812 -56.675781 55.96875 -55.96875 L 81.375 -53.484375 C 89.90625 -52.648438 97.398438 -51.316406 103.859375 -49.484375 C 110.316406 -47.648438 115.320312 -44.957031 118.875 -41.40625 C 122.425781 -37.851562 124.203125 -33.054688 124.203125 -27.015625 C 124.203125 -20.492188 121.832031 -14.953125 117.09375 -10.390625 C 112.351562 -5.828125 105.867188 -2.390625 97.640625 -0.078125 C 89.410156 2.222656 80.082031 3.375 69.65625 3.375 Z M 69.65625 3.375 "/></g></g></g><g fill="#000000" fill-opacity="1"><g transform="translate(410.316659, 222.408951)"><g><path d="M 71.4375 3.375 C 58.164062 3.375 46.523438 1.363281 36.515625 -2.65625 C 26.503906 -6.6875 18.742188 -12.34375 13.234375 -19.625 C 7.722656 -26.914062 4.96875 -35.414062 4.96875 -45.125 C 4.96875 -54.84375 7.691406 -63.34375 13.140625 -70.625 C 18.597656 -77.914062 26.210938 -83.570312 35.984375 -87.59375 C 45.753906 -91.625 57.035156 -93.640625 69.828125 -93.640625 C 79.898438 -93.640625 89.050781 -92.363281 97.28125 -89.8125 C 105.519531 -87.269531 112.421875 -83.6875 117.984375 -79.0625 C 123.546875 -74.445312 127.394531 -69 129.53125 -62.71875 L 108.75 -57.578125 C 106.5 -63.734375 102.082031 -68.617188 95.5 -72.234375 C 88.925781 -75.847656 80.90625 -77.65625 71.4375 -77.65625 C 62.78125 -77.65625 55.132812 -76.289062 48.5 -73.5625 C 41.875 -70.832031 36.691406 -67.039062 32.953125 -62.1875 C 29.222656 -57.332031 27.359375 -51.644531 27.359375 -45.125 C 27.359375 -38.613281 29.253906 -32.929688 33.046875 -28.078125 C 36.835938 -23.222656 42.140625 -19.429688 48.953125 -16.703125 C 55.765625 -13.972656 63.671875 -12.609375 72.671875 -12.609375 C 80.367188 -12.609375 87.472656 -13.765625 93.984375 -16.078125 C 100.503906 -18.390625 106.046875 -21.585938 110.609375 -25.671875 C 115.171875 -29.765625 118.28125 -34.535156 119.9375 -39.984375 L 141.078125 -35.1875 C 138.597656 -27.601562 134.039062 -20.90625 127.40625 -15.09375 C 120.769531 -9.289062 112.65625 -4.757812 103.0625 -1.5 C 93.46875 1.746094 82.925781 3.375 71.4375 3.375 Z M 71.4375 3.375 "/></g></g></g><g fill="#000000" fill-opacity="1"><g transform="translate(554.409257, 222.408951)"><g><path d="M 73.03125 3.375 C 59.289062 3.375 47.328125 1.363281 37.140625 -2.65625 C 26.953125 -6.6875 19.039062 -12.34375 13.40625 -19.625 C 7.78125 -26.914062 4.96875 -35.414062 4.96875 -45.125 C 4.96875 -54.957031 7.78125 -63.488281 13.40625 -70.71875 C 19.039062 -77.945312 26.953125 -83.570312 37.140625 -87.59375 C 47.328125 -91.625 59.289062 -93.640625 73.03125 -93.640625 C 86.882812 -93.640625 98.90625 -91.625 109.09375 -87.59375 C 119.28125 -83.570312 127.1875 -77.945312 132.8125 -70.71875 C 138.445312 -63.488281 141.265625 -54.957031 141.265625 -45.125 C 141.265625 -35.414062 138.445312 -26.914062 132.8125 -19.625 C 127.1875 -12.34375 119.28125 -6.6875 109.09375 -2.65625 C 98.90625 1.363281 86.882812 3.375 73.03125 3.375 Z M 73.03125 -12.796875 C 82.269531 -12.796875 90.296875 -14.128906 97.109375 -16.796875 C 103.921875 -19.460938 109.21875 -23.222656 113 -28.078125 C 116.789062 -32.929688 118.6875 -38.613281 118.6875 -45.125 C 118.6875 -51.644531 116.789062 -57.332031 113 -62.1875 C 109.21875 -67.039062 103.921875 -70.800781 97.109375 -73.46875 C 90.296875 -76.132812 82.269531 -77.46875 73.03125 -77.46875 C 63.90625 -77.46875 55.90625 -76.132812 49.03125 -73.46875 C 42.164062 -70.800781 36.835938 -67.039062 33.046875 -62.1875 C 29.253906 -57.332031 27.359375 -51.644531 27.359375 -45.125 C 27.359375 -38.613281 29.253906 -32.929688 33.046875 -28.078125 C 36.835938 -23.222656 42.164062 -19.460938 49.03125 -16.796875 C 55.90625 -14.128906 63.90625 -12.796875 73.03125 -12.796875 Z M 73.03125 -12.796875 "/></g></g></g><g fill="#000000" fill-opacity="1"><g transform="translate(690.327917, 222.408951)"><g><path d="M 52.765625 0 L 0 -90.4375 L 24.703125 -90.4375 L 66.625 -15.984375 L 66.8125 -15.984375 L 108.75 -90.4375 L 133.265625 -90.4375 L 80.3125 0 Z M 52.765625 0 "/></g></g></g><g fill="#000000" fill-opacity="1"><g transform="translate(813.809545, 222.408951)"><g><path d="M 76.234375 3.375 C 62.367188 3.375 50.078125 1.273438 39.359375 -2.921875 C 28.640625 -7.128906 20.226562 -12.9375 14.125 -20.34375 C 8.019531 -27.75 4.96875 -36.25 4.96875 -45.84375 C 4.96875 -55.195312 7.78125 -63.457031 13.40625 -70.625 C 19.039062 -77.789062 26.800781 -83.414062 36.6875 -87.5 C 46.582031 -91.59375 57.925781 -93.640625 70.71875 -93.640625 C 83.269531 -93.640625 94.375 -91.59375 104.03125 -87.5 C 113.6875 -83.414062 121.238281 -77.789062 126.6875 -70.625 C 132.132812 -63.457031 134.859375 -55.140625 134.859375 -45.671875 C 134.859375 -44.722656 134.800781 -43.503906 134.6875 -42.015625 C 134.570312 -40.535156 134.394531 -39.265625 134.15625 -38.203125 L 29.5 -38.203125 C 30.5625 -33.109375 33.398438 -28.695312 38.015625 -24.96875 C 42.640625 -21.238281 48.445312 -18.335938 55.4375 -16.265625 C 62.425781 -14.191406 70.007812 -13.15625 78.1875 -13.15625 C 85.289062 -13.15625 92.160156 -13.832031 98.796875 -15.1875 C 105.429688 -16.550781 111.472656 -18.390625 116.921875 -20.703125 C 122.367188 -23.015625 126.691406 -25.648438 129.890625 -28.609375 L 138.953125 -15.8125 C 134.804688 -12.144531 129.445312 -8.859375 122.875 -5.953125 C 116.300781 -3.046875 109.015625 -0.761719 101.015625 0.890625 C 93.015625 2.546875 84.753906 3.375 76.234375 3.375 Z M 28.96875 -52.0625 L 111.59375 -52.0625 C 111.113281 -57.269531 108.976562 -61.800781 105.1875 -65.65625 C 101.394531 -69.507812 96.445312 -72.472656 90.34375 -74.546875 C 84.25 -76.617188 77.472656 -77.65625 70.015625 -77.65625 C 62.785156 -77.65625 56.148438 -76.554688 50.109375 -74.359375 C 44.066406 -72.171875 39.175781 -69.148438 35.4375 -65.296875 C 31.707031 -61.453125 29.550781 -57.039062 28.96875 -52.0625 Z M 28.96875 -52.0625 "/></g></g></g><g fill="#000000" fill-opacity="1"><g transform="translate(958.257446, 222.408951)"><g><path d="M 66.453125 -93.8125 C 76.285156 -93.8125 84.429688 -90.789062 90.890625 -84.75 C 97.347656 -78.707031 101.050781 -70.359375 102 -59.703125 L 81.734375 -54.734375 C 81.140625 -61.953125 78.828125 -67.515625 74.796875 -71.421875 C 70.773438 -75.335938 65.6875 -77.296875 59.53125 -77.296875 C 50.164062 -77.296875 42.816406 -73.828125 37.484375 -66.890625 C 32.160156 -59.960938 29.5 -50.578125 29.5 -38.734375 L 29.5 0 L 7.109375 0 L 7.109375 -90.4375 L 26.46875 -90.4375 L 29.3125 -70.71875 L 29.5 -70.71875 C 32.9375 -77.820312 37.878906 -83.445312 44.328125 -87.59375 C 50.785156 -91.738281 58.160156 -93.8125 66.453125 -93.8125 Z M 66.453125 -93.8125 "/></g></g></g><g fill="#000000" fill-opacity="1"><g transform="translate(1063.111127, 222.408951)"><g/></g></g></g></g></g></g></g></g></mask><clipPath id="542eefc5d3"><path d="M 0.792969 0 L 1136.207031 0 L 1136.207031 358 L 0.792969 358 Z M 0.792969 0 " clip-rule="nonzero"/></clipPath><clipPath id="1f1cb06958"><rect x="0" width="1137" y="0" height="358"/></clipPath><clipPath id="353afcdfb0"><rect x="0" width="1137" y="0" height="358"/></clipPath><clipPath id="81c1281fc5"><rect x="0" width="1137" y="0" height="358"/></clipPath><clipPath id="49259f842e"><path d="M 0.792969 0 L 1136.207031 0 L 1136.207031 358 L 0.792969 358 Z M 0.792969 0 " clip-rule="nonzero"/></clipPath><clipPath id="02e6a1cd93"><path d="M 0.792969 0 L 1136.207031 0 L 1136.207031 358 L 0.792969 358 Z M 0.792969 0 " clip-rule="nonzero"/></clipPath><clipPath id="eeab8a1808"><path d="M 0.792969 0 L 1136.207031 0 L 1136.207031 358 L 0.792969 358 Z M 0.792969 0 " clip-rule="nonzero"/></clipPath><clipPath id="bed1eab595"><rect x="0" width="1137" y="0" height="358"/></clipPath><clipPath id="ad1278b5b2"><path d="M 0.792969 0 L 1136.207031 0 L 1136.207031 358 L 0.792969 358 Z M 0.792969 0 " clip-rule="nonzero"/></clipPath><clipPath id="bf7169a9f9"><rect x="0" width="1137" y="0" height="358"/></clipPath><clipPath id="a560236788"><rect x="0" width="1137" y="0" height="358"/></clipPath><mask id="06eed59d6b"><g filter="url(#5e42c5694e)"><g><g clip-path="url(#a560236788)"><g clip-path="url(#ad1278b5b2)"><g><g clip-path="url(#bf7169a9f9)"><g fill="#000000" fill-opacity="1"><g transform="translate(73.449115, 222.408951)"><g><path d="M 8.890625 0 L 8.890625 -125.984375 L 87.953125 -125.984375 C 111.765625 -125.984375 130.066406 -120.53125 142.859375 -109.625 C 155.648438 -98.726562 162.046875 -83.15625 162.046875 -62.90625 C 162.046875 -42.757812 155.648438 -27.238281 142.859375 -16.34375 C 130.066406 -5.445312 111.765625 0 87.953125 0 Z M 33.234375 -18.65625 L 85.828125 -18.65625 C 102.523438 -18.65625 115.375 -22.472656 124.375 -30.109375 C 133.382812 -37.753906 137.890625 -48.6875 137.890625 -62.90625 C 137.890625 -77.113281 133.382812 -88.007812 124.375 -95.59375 C 115.375 -103.175781 102.523438 -106.96875 85.828125 -106.96875 L 33.234375 -106.96875 Z M 33.234375 -18.65625 "/></g></g></g><g fill="#000000" fill-opacity="1"><g transform="translate(242.238239, 222.408951)"><g><path d="M 19.90625 -105.375 C 15.757812 -105.375 12.378906 -106.585938 9.765625 -109.015625 C 7.160156 -111.441406 5.859375 -114.609375 5.859375 -118.515625 C 5.859375 -122.421875 7.160156 -125.585938 9.765625 -128.015625 C 12.378906 -130.453125 15.757812 -131.671875 19.90625 -131.671875 C 24.164062 -131.671875 27.628906 -130.453125 30.296875 -128.015625 C 32.960938 -125.585938 34.296875 -122.421875 34.296875 -118.515625 C 34.296875 -114.609375 32.960938 -111.441406 30.296875 -109.015625 C 27.628906 -106.585938 24.164062 -105.375 19.90625 -105.375 Z M 8.703125 0 L 8.703125 -90.4375 L 31.265625 -90.4375 L 31.265625 0 Z M 8.703125 0 "/></g></g></g><g fill="#000000" fill-opacity="1"><g transform="translate(282.392287, 222.408951)"><g><path d="M 69.65625 3.375 C 59.707031 3.375 50.257812 2.25 41.3125 0 C 32.363281 -2.25 24.628906 -5.359375 18.109375 -9.328125 C 11.597656 -13.296875 6.804688 -17.828125 3.734375 -22.921875 L 14.921875 -33.765625 C 17.410156 -29.617188 21.289062 -25.882812 26.5625 -22.5625 C 31.832031 -19.25 38.109375 -16.671875 45.390625 -14.828125 C 52.679688 -12.992188 60.414062 -12.078125 68.59375 -12.078125 C 79.132812 -12.078125 87.601562 -13.289062 94 -15.71875 C 100.394531 -18.15625 103.59375 -21.382812 103.59375 -25.40625 C 103.59375 -28.84375 101.34375 -31.445312 96.84375 -33.21875 C 92.34375 -35 86.0625 -36.304688 78 -37.140625 L 53.3125 -39.265625 C 45.132812 -40.097656 37.960938 -41.429688 31.796875 -43.265625 C 25.640625 -45.097656 20.875 -47.703125 17.5 -51.078125 C 14.125 -54.460938 12.4375 -58.878906 12.4375 -64.328125 C 12.4375 -70.722656 14.628906 -76.082031 19.015625 -80.40625 C 23.398438 -84.726562 29.46875 -88.015625 37.21875 -90.265625 C 44.976562 -92.515625 53.773438 -93.640625 63.609375 -93.640625 C 70.835938 -93.640625 77.769531 -92.835938 84.40625 -91.234375 C 91.039062 -89.640625 97.050781 -87.421875 102.4375 -84.578125 C 107.820312 -81.734375 112.175781 -78.414062 115.5 -74.625 L 105.375 -63.4375 C 101.457031 -67.9375 95.648438 -71.664062 87.953125 -74.625 C 80.253906 -77.59375 72.019531 -79.078125 63.25 -79.078125 C 54.601562 -79.078125 47.378906 -77.945312 41.578125 -75.6875 C 35.773438 -73.4375 32.875 -70.414062 32.875 -66.625 C 32.875 -63.3125 34.828125 -60.882812 38.734375 -59.34375 C 42.640625 -57.800781 48.382812 -56.675781 55.96875 -55.96875 L 81.375 -53.484375 C 89.90625 -52.648438 97.398438 -51.316406 103.859375 -49.484375 C 110.316406 -47.648438 115.320312 -44.957031 118.875 -41.40625 C 122.425781 -37.851562 124.203125 -33.054688 124.203125 -27.015625 C 124.203125 -20.492188 121.832031 -14.953125 117.09375 -10.390625 C 112.351562 -5.828125 105.867188 -2.390625 97.640625 -0.078125 C 89.410156 2.222656 80.082031 3.375 69.65625 3.375 Z M 69.65625 3.375 "/></g></g></g><g fill="#000000" fill-opacity="1"><g transform="translate(410.316659, 222.408951)"><g><path d="M 71.4375 3.375 C 58.164062 3.375 46.523438 1.363281 36.515625 -2.65625 C 26.503906 -6.6875 18.742188 -12.34375 13.234375 -19.625 C 7.722656 -26.914062 4.96875 -35.414062 4.96875 -45.125 C 4.96875 -54.84375 7.691406 -63.34375 13.140625 -70.625 C 18.597656 -77.914062 26.210938 -83.570312 35.984375 -87.59375 C 45.753906 -91.625 57.035156 -93.640625 69.828125 -93.640625 C 79.898438 -93.640625 89.050781 -92.363281 97.28125 -89.8125 C 105.519531 -87.269531 112.421875 -83.6875 117.984375 -79.0625 C 123.546875 -74.445312 127.394531 -69 129.53125 -62.71875 L 108.75 -57.578125 C 106.5 -63.734375 102.082031 -68.617188 95.5 -72.234375 C 88.925781 -75.847656 80.90625 -77.65625 71.4375 -77.65625 C 62.78125 -77.65625 55.132812 -76.289062 48.5 -73.5625 C 41.875 -70.832031 36.691406 -67.039062 32.953125 -62.1875 C 29.222656 -57.332031 27.359375 -51.644531 27.359375 -45.125 C 27.359375 -38.613281 29.253906 -32.929688 33.046875 -28.078125 C 36.835938 -23.222656 42.140625 -19.429688 48.953125 -16.703125 C 55.765625 -13.972656 63.671875 -12.609375 72.671875 -12.609375 C 80.367188 -12.609375 87.472656 -13.765625 93.984375 -16.078125 C 100.503906 -18.390625 106.046875 -21.585938 110.609375 -25.671875 C 115.171875 -29.765625 118.28125 -34.535156 119.9375 -39.984375 L 141.078125 -35.1875 C 138.597656 -27.601562 134.039062 -20.90625 127.40625 -15.09375 C 120.769531 -9.289062 112.65625 -4.757812 103.0625 -1.5 C 93.46875 1.746094 82.925781 3.375 71.4375 3.375 Z M 71.4375 3.375 "/></g></g></g><g fill="#000000" fill-opacity="1"><g transform="translate(554.409257, 222.408951)"><g><path d="M 73.03125 3.375 C 59.289062 3.375 47.328125 1.363281 37.140625 -2.65625 C 26.953125 -6.6875 19.039062 -12.34375 13.40625 -19.625 C 7.78125 -26.914062 4.96875 -35.414062 4.96875 -45.125 C 4.96875 -54.957031 7.78125 -63.488281 13.40625 -70.71875 C 19.039062 -77.945312 26.953125 -83.570312 37.140625 -87.59375 C 47.328125 -91.625 59.289062 -93.640625 73.03125 -93.640625 C 86.882812 -93.640625 98.90625 -91.625 109.09375 -87.59375 C 119.28125 -83.570312 127.1875 -77.945312 132.8125 -70.71875 C 138.445312 -63.488281 141.265625 -54.957031 141.265625 -45.125 C 141.265625 -35.414062 138.445312 -26.914062 132.8125 -19.625 C 127.1875 -12.34375 119.28125 -6.6875 109.09375 -2.65625 C 98.90625 1.363281 86.882812 3.375 73.03125 3.375 Z M 73.03125 -12.796875 C 82.269531 -12.796875 90.296875 -14.128906 97.109375 -16.796875 C 103.921875 -19.460938 109.21875 -23.222656 113 -28.078125 C 116.789062 -32.929688 118.6875 -38.613281 118.6875 -45.125 C 118.6875 -51.644531 116.789062 -57.332031 113 -62.1875 C 109.21875 -67.039062 103.921875 -70.800781 97.109375 -73.46875 C 90.296875 -76.132812 82.269531 -77.46875 73.03125 -77.46875 C 63.90625 -77.46875 55.90625 -76.132812 49.03125 -73.46875 C 42.164062 -70.800781 36.835938 -67.039062 33.046875 -62.1875 C 29.253906 -57.332031 27.359375 -51.644531 27.359375 -45.125 C 27.359375 -38.613281 29.253906 -32.929688 33.046875 -28.078125 C 36.835938 -23.222656 42.164062 -19.460938 49.03125 -16.796875 C 55.90625 -14.128906 63.90625 -12.796875 73.03125 -12.796875 Z M 73.03125 -12.796875 "/></g></g></g><g fill="#000000" fill-opacity="1"><g transform="translate(690.327917, 222.408951)"><g><path d="M 52.765625 0 L 0 -90.4375 L 24.703125 -90.4375 L 66.625 -15.984375 L 66.8125 -15.984375 L 108.75 -90.4375 L 133.265625 -90.4375 L 80.3125 0 Z M 52.765625 0 "/></g></g></g><g fill="#000000" fill-opacity="1"><g transform="translate(813.809545, 222.408951)"><g><path d="M 76.234375 3.375 C 62.367188 3.375 50.078125 1.273438 39.359375 -2.921875 C 28.640625 -7.128906 20.226562 -12.9375 14.125 -20.34375 C 8.019531 -27.75 4.96875 -36.25 4.96875 -45.84375 C 4.96875 -55.195312 7.78125 -63.457031 13.40625 -70.625 C 19.039062 -77.789062 26.800781 -83.414062 36.6875 -87.5 C 46.582031 -91.59375 57.925781 -93.640625 70.71875 -93.640625 C 83.269531 -93.640625 94.375 -91.59375 104.03125 -87.5 C 113.6875 -83.414062 121.238281 -77.789062 126.6875 -70.625 C 132.132812 -63.457031 134.859375 -55.140625 134.859375 -45.671875 C 134.859375 -44.722656 134.800781 -43.503906 134.6875 -42.015625 C 134.570312 -40.535156 134.394531 -39.265625 134.15625 -38.203125 L 29.5 -38.203125 C 30.5625 -33.109375 33.398438 -28.695312 38.015625 -24.96875 C 42.640625 -21.238281 48.445312 -18.335938 55.4375 -16.265625 C 62.425781 -14.191406 70.007812 -13.15625 78.1875 -13.15625 C 85.289062 -13.15625 92.160156 -13.832031 98.796875 -15.1875 C 105.429688 -16.550781 111.472656 -18.390625 116.921875 -20.703125 C 122.367188 -23.015625 126.691406 -25.648438 129.890625 -28.609375 L 138.953125 -15.8125 C 134.804688 -12.144531 129.445312 -8.859375 122.875 -5.953125 C 116.300781 -3.046875 109.015625 -0.761719 101.015625 0.890625 C 93.015625 2.546875 84.753906 3.375 76.234375 3.375 Z M 28.96875 -52.0625 L 111.59375 -52.0625 C 111.113281 -57.269531 108.976562 -61.800781 105.1875 -65.65625 C 101.394531 -69.507812 96.445312 -72.472656 90.34375 -74.546875 C 84.25 -76.617188 77.472656 -77.65625 70.015625 -77.65625 C 62.785156 -77.65625 56.148438 -76.554688 50.109375 -74.359375 C 44.066406 -72.171875 39.175781 -69.148438 35.4375 -65.296875 C 31.707031 -61.453125 29.550781 -57.039062 28.96875 -52.0625 Z M 28.96875 -52.0625 "/></g></g></g><g fill="#000000" fill-opacity="1"><g transform="translate(958.257446, 222.408951)"><g><path d="M 66.453125 -93.8125 C 76.285156 -93.8125 84.429688 -90.789062 90.890625 -84.75 C 97.347656 -78.707031 101.050781 -70.359375 102 -59.703125 L 81.734375 -54.734375 C 81.140625 -61.953125 78.828125 -67.515625 74.796875 -71.421875 C 70.773438 -75.335938 65.6875 -77.296875 59.53125 -77.296875 C 50.164062 -77.296875 42.816406 -73.828125 37.484375 -66.890625 C 32.160156 -59.960938 29.5 -50.578125 29.5 -38.734375 L 29.5 0 L 7.109375 0 L 7.109375 -90.4375 L 26.46875 -90.4375 L 29.3125 -70.71875 L 29.5 -70.71875 C 32.9375 -77.820312 37.878906 -83.445312 44.328125 -87.59375 C 50.785156 -91.738281 58.160156 -93.8125 66.453125 -93.8125 Z M 66.453125 -93.8125 "/></g></g></g><g fill="#000000" fill-opacity="1"><g transform="translate(1063.111127, 222.408951)"><g/></g></g></g></g></g></g></g></g></mask><clipPath id="608ddd7f8d"><path d="M 0.792969 0 L 1136.207031 0 L 1136.207031 358 L 0.792969 358 Z M 0.792969 0 " clip-rule="nonzero"/></clipPath><clipPath id="2c95bd9b2a"><rect x="0" width="1137" y="0" height="358"/></clipPath><clipPath id="fd58e9ff62"><rect x="0" width="1137" y="0" height="358"/></clipPath><clipPath id="e8d4c8999b"><rect x="0" width="1137" y="0" height="358"/></clipPath></defs><g clip-path="url(#e96d52ebf9)"><g><g clip-path="url(#81c1281fc5)"><g clip-path="url(#d777bd56c0)"><g><g clip-path="url(#353afcdfb0)"><g clip-path="url(#41861576e2)"><g mask="url(#11f60a1ed8)"><g><g clip-path="url(#1f1cb06958)"><g clip-path="url(#542eefc5d3)"><path fill="url(#2ba60b96a3)" d="M 0.792969 0 L 0.792969 358 L 1136.207031 358 L 1136.207031 0 Z M 0.792969 0 " fill-rule="nonzero"/></g></g></g></g></g></g></g></g></g></g><g><g clip-path="url(#e8d4c8999b)"><g clip-path="url(#49259f842e)"><g><g clip-path="url(#fd58e9ff62)"><g clip-path="url(#02e6a1cd93)"><g mask="url(#06eed59d6b)"><g><g clip-path="url(#2c95bd9b2a)"><g clip-path="url(#608ddd7f8d)"><path fill="url(#2ba60b96a3)" d="M 0.792969 0 L 0.792969 358 L 1136.207031 358 L 1136.207031 0 Z M 0.792969 0 " fill-rule="nonzero"/></g></g></g></g></g></g></g></g></g></g></g></svg>